<?xml version="1.0" encoding="UTF-8" standalone="no"?>
<svg
   xmlns:dc="http://purl.org/dc/elements/1.1/"
   xmlns:cc="http://creativecommons.org/ns#"
   xmlns:rdf="http://www.w3.org/1999/02/22-rdf-syntax-ns#"
   xmlns:svg="http://www.w3.org/2000/svg"
   xmlns="http://www.w3.org/2000/svg"
   viewBox="0 0 349.33334 204"
   height="204"
   width="349.33334"
   xml:space="preserve"
   id="svg2"
   version="1.1"><metadata
     id="metadata8"><rdf:RDF><cc:Work
         rdf:about=""><dc:format>image/svg+xml</dc:format><dc:type
           rdf:resource="http://purl.org/dc/dcmitype/StillImage" /></cc:Work></rdf:RDF></metadata><defs
     id="defs6" /><g
     transform="matrix(1.3333333,0,0,-1.3333333,0,204)"
     id="g10"><g
       transform="scale(0.1)"
       id="g12"><path
         id="path14"
         style="fill:#118770;fill-opacity:1;fill-rule:evenodd;stroke:none"
         d="M 0,1530 H 1674.1 C 996.949,807.031 1309.26,297.109 2610.98,0.199219 H 0 V 1530" /><path
         id="path16"
         style="fill:#fad15a;fill-opacity:1;fill-rule:nonzero;stroke:none"
         d="m 190.469,953.09 v 86.09 h 11.562 v -41.719 l 42.028,41.719 h 16.101 l -36.57,-35.16 37.191,-50.93 h -15.16 L 215,995.738 202.031,983.09 v -30 z m 95.312,-1.719 c -6.172,0 -11.051,1.641 -14.691,4.84 -3.551,3.32 -5.309,7.809 -5.309,13.437 0,5.622 1.641,10.082 5,13.442 3.438,3.32 8.36,5.351 14.84,6.09 L 300,991.051 c 1.129,0.078 2.23,0.32 3.281,0.629 1.328,0.308 2.379,0.98 3.129,2.031 0.82,1.019 1.25,2.379 1.25,4.059 v 0.468 c 0,3.322 -1.332,5.942 -3.91,7.812 -2.5,1.96 -6.051,2.97 -10.629,2.97 -4.293,0 -7.652,-1.05 -10.152,-3.12 -2.418,-1.99 -3.867,-4.96 -4.379,-8.912 h -9.68 c 0.5,6.882 2.891,12.032 7.18,15.472 4.379,3.44 10.551,5.16 18.601,5.16 7.688,0 13.508,-1.68 17.5,-5 3.938,-3.24 5.93,-8.05 5.93,-14.382 v -34.367 c 0,-1.062 0.32,-1.961 0.938,-2.66 0.632,-0.621 1.492,-0.941 2.66,-0.941 0.312,0 0.781,0.039 1.402,0.16 0.629,0.082 1.258,0.191 1.879,0.308 v -7.648 c -0.941,-0.32 -1.988,-0.551 -3.121,-0.789 -1.18,-0.313 -2.149,-0.461 -2.969,-0.461 -3.988,0 -6.84,1.09 -8.601,3.281 -1.168,1.438 -1.989,3.508 -2.5,6.25 -0.86,-1.062 -1.789,-1.992 -2.809,-2.82 -5.23,-4.801 -11.641,-7.18 -19.219,-7.18 z m 21.879,26.559 v 6.871 c -2,-0.93 -4.18,-1.641 -6.57,-2.031 l -9.68,-1.399 c -5.121,-0.75 -8.871,-1.961 -11.25,-3.601 -2.308,-1.559 -3.441,-3.821 -3.441,-6.719 0,-3.551 0.941,-6.25 2.812,-8.121 1.949,-1.879 4.731,-2.809 8.278,-2.809 5.511,0 10.203,1.481 14.07,4.527 2.57,2.071 4.293,4.454 5.152,7.192 0.199,0.5 0.309,1.281 0.309,2.34 0.199,1.129 0.32,2.379 0.32,3.75 z" /><path
         id="path18"
         style="fill:#fad15a;fill-opacity:1;fill-rule:nonzero;stroke:none"
         d="m 335.23,1015.74 h 10 v -8.9 l 0.469,0.78 c 4.571,6.64 10.551,10 17.973,10 8.129,0 14.566,-2.82 19.379,-8.44 4.758,-5.63 7.179,-13.239 7.179,-22.809 0,-10.941 -2.421,-19.531 -7.179,-25.781 -4.813,-6.18 -11.531,-9.219 -20.16,-9.219 -6.993,0 -12.621,2.688 -16.871,8.117 l -0.321,0.473 V 928.238 H 335.23 Z m 27.192,-55.15 c 5.508,0 9.687,2.07 12.5,6.25 2.887,4.14 4.379,10.191 4.379,18.121 0,7.809 -1.41,13.59 -4.223,17.339 -2.738,3.83 -6.957,5.79 -12.656,5.79 -5.742,0 -9.961,-2.15 -12.652,-6.41 -2.739,-4.301 -4.071,-11.02 -4.071,-20.16 0,-6.79 1.449,-11.989 4.379,-15.622 2.891,-3.558 7.031,-5.308 12.344,-5.308 z" /><path
         id="path20"
         style="fill:#fad15a;fill-opacity:1;fill-rule:nonzero;stroke:none"
         d="m 403.121,1015.74 h 10.6289 V 953.0916 H 403.121 Z m -0.152,23.44 h 10.7813 v -11.8789 H 402.969 Z" /><path
         id="path22"
         style="fill:#fad15a;fill-opacity:1;fill-rule:nonzero;stroke:none"
         d="m 429.691,953.09 h 10.6172 v 86.0898 H 429.691 Z" /><path
         id="path24"
         style="fill:#fad15a;fill-opacity:1;fill-rule:nonzero;stroke:none"
         d="m 491.41,953.09 v 86.09 h 35.469 c 10.93,0 19.601,-3.91 26.09,-11.72 6.441,-7.73 9.691,-18.2 9.691,-31.409 0,-13.121 -3.359,-23.59 -10,-31.403 -6.57,-7.738 -15.469,-11.558 -26.719,-11.558 z m 11.711,10 h 21.258 c 8.43,0 14.883,2.851 19.371,8.59 4.57,5.699 6.871,13.832 6.871,24.371 0,10.629 -2.18,18.789 -6.562,24.539 -4.368,5.82 -10.579,8.75 -18.59,8.75 h -22.348 z" /><path
         id="path26"
         style="fill:#fad15a;fill-opacity:1;fill-rule:nonzero;stroke:none"
         d="m 601.719,951.371 c -8.867,0 -15.86,2.809 -20.938,8.43 -5,5.629 -7.5,13.359 -7.5,23.289 0,10.621 2.66,18.98 7.969,25.15 5.391,6.25 12.66,9.38 21.719,9.38 8.203,0 14.84,-3.09 19.84,-9.22 5,-6.06 7.5,-14.021 7.5,-23.912 v -3.75 h -45.93 c 0.5,-6.25 1.949,-11.008 4.371,-14.218 2.891,-4.059 7.578,-6.09 14.059,-6.09 3.953,0 7.421,1.129 10.472,3.441 3.008,2.258 4.879,5.188 5.629,8.75 h 10.309 c -1.559,-6.883 -4.688,-12.152 -9.379,-15.781 -4.68,-3.68 -10.738,-5.469 -18.121,-5.469 z m 17.66,37.809 c -0.32,5.82 -1.801,10.351 -4.379,13.59 -2.809,3.64 -6.988,5.47 -12.5,5.47 -5.551,0 -9.961,-2.11 -13.281,-6.25 -2.617,-3.24 -4.219,-7.502 -4.84,-12.81 z" /><path
         id="path28"
         style="fill:#fad15a;fill-opacity:1;fill-rule:nonzero;stroke:none"
         d="m 636.172,1015.74 h 12.348 l 16.71,-51.252 17.348,51.252 h 11.723 l -23.442,-62.65 h -11.25 z" /><path
         id="path30"
         style="fill:#fad15a;fill-opacity:1;fill-rule:nonzero;stroke:none"
         d="m 189.059,404.41 v 64.539 h 44.691 v -7.66 h -36.09 v -19.687 h 31.559 v -7.813 H 197.66 V 404.41 Z m 92.851,44.692 c 0,-4.692 -1.211,-8.551 -3.59,-11.563 -2.422,-3.051 -6.871,-6.328 -13.441,-9.84 -7.18,-3.988 -12.109,-7.578 -14.68,-10.789 -1.058,-1.48 -1.961,-3.078 -2.66,-4.84 h 34.371 v -7.66 h -43.281 c 0,6.641 1.601,12.07 4.851,16.25 3.321,4.262 9.571,8.91 18.75,13.91 4.372,2.5 7.34,4.731 8.899,6.719 1.641,2.07 2.5,4.731 2.5,7.973 0,3.437 -1.207,6.168 -3.59,8.277 -2.418,2.191 -5.469,3.281 -9.219,3.281 -3.871,0 -6.949,-1.371 -9.218,-4.058 -2.192,-2.742 -3.403,-6.532 -3.59,-11.41 h -7.66 c -0.122,6.949 1.718,12.418 5.468,16.41 3.828,3.937 9.219,5.937 16.09,5.937 5.942,0 10.789,-1.719 14.539,-5.16 3.629,-3.559 5.461,-8.051 5.461,-13.437 z" /><path
         id="path32"
         style="fill:#fad15a;fill-opacity:1;fill-rule:nonzero;stroke:none"
         d="m 311.371,402.699 c -6.883,0 -12.269,2.813 -16.101,8.43 -3.75,5.633 -5.622,13.641 -5.622,24.07 0,10.391 1.872,18.43 5.622,24.063 3.832,5.617 9.218,8.437 16.101,8.437 6.949,0 12.34,-2.82 16.09,-8.437 3.75,-5.633 5.629,-13.672 5.629,-24.063 0,-10.429 -1.879,-18.437 -5.629,-24.07 -3.75,-5.617 -9.141,-8.43 -16.09,-8.43 z m 0,7.18 c 4.449,0 7.809,2.07 10,6.25 2.258,4.262 3.359,10.633 3.277,19.07 0.082,8.43 -1.019,14.723 -3.277,18.903 -2.191,4.257 -5.551,6.41 -10,6.41 -4.383,0 -7.742,-2.153 -10,-6.41 -2.191,-4.18 -3.281,-10.473 -3.281,-18.903 0,-8.437 1.09,-14.808 3.281,-19.07 2.258,-4.18 5.617,-6.25 10,-6.25 z" /><path
         id="path34"
         style="fill:#fad15a;fill-opacity:1;fill-rule:nonzero;stroke:none"
         d="m 360.391,404.41 v 44.852 h -14.84 v 6.398 c 4.371,-0.109 7.89,0.82 10.621,2.82 2.808,1.95 4.848,5.04 6.098,9.219 h 6.558 V 404.41 Z" /><path
         id="path36"
         style="fill:#fad15a;fill-opacity:1;fill-rule:nonzero;stroke:none"
         d="m 419.34,404.41 v 64.539 h 28.121 c 6.328,0 11.25,-1.57 14.687,-4.687 3.512,-3.133 5.313,-7.461 5.313,-12.973 0,-6.168 -1.801,-11.019 -5.313,-14.527 -3.437,-3.442 -8.359,-5.16 -14.687,-5.16 -8.242,0.078 -14.762,0.078 -19.531,0 V 404.41 Z m 8.59,34.692 h 17.5 c 4.449,0 7.73,0.937 9.84,2.808 2.191,1.961 3.281,5 3.281,9.07 0,3.629 -1.09,6.29 -3.281,7.969 -2.11,1.75 -5.391,2.653 -9.84,2.653 h -17.5 z" /><path
         id="path38"
         style="fill:#fad15a;fill-opacity:1;fill-rule:nonzero;stroke:none"
         d="m 478.52,404.41 v 47.039 h 7.652 v -8.129 c 0.629,1.328 1.289,2.5 2.027,3.442 3.012,4.058 6.723,6.09 11.102,6.09 0.699,0 1.437,-0.153 2.179,-0.473 v -7.969 h -1.558 c -4.301,0 -7.621,-1.32 -10,-3.898 -2.301,-2.5 -3.442,-6.172 -3.442,-10.942 v -25.16 z" /><path
         id="path40"
         style="fill:#fad15a;fill-opacity:1;fill-rule:nonzero;stroke:none"
         d="m 507.809,451.449 h 7.97266 V 404.4099 H 507.809 Z m 0,17.5 h 7.97266 v -8.91016 H 507.809 Z" /><path
         id="path42"
         style="fill:#fad15a;fill-opacity:1;fill-rule:nonzero;stroke:none"
         d="m 545.512,403.16 c -6.25,0 -11.25,2.352 -15,7.039 -3.75,4.68 -5.633,11.012 -5.633,19.063 0,7.07 1.762,12.726 5.32,17.027 3.629,4.371 8.352,6.563 14.211,6.563 5.82,0 10.391,-2.461 13.75,-7.34 l 0.629,-0.942 v 24.379 h 7.813 V 404.41 h -7.34 v 6.41 l -0.942,-1.41 c -3.242,-4.18 -7.5,-6.25 -12.808,-6.25 z m 0.468,42.5 c -4.378,0 -7.621,-1.398 -9.691,-4.211 -2.109,-2.82 -3.129,-7.308 -3.129,-13.437 0,-5.864 1.102,-10.313 3.289,-13.442 2.262,-3.121 5.461,-4.691 9.531,-4.691 3.821,0 6.911,1.453 9.219,4.383 2.379,2.886 3.59,6.718 3.59,11.398 0,6.449 -1.168,11.41 -3.437,14.852 -2.192,3.437 -5.313,5.148 -9.372,5.148 z" /><path
         id="path44"
         style="fill:#fad15a;fill-opacity:1;fill-rule:nonzero;stroke:none"
         d="m 596.84,403.16 c -6.68,0 -11.961,2.07 -15.789,6.25 -3.75,4.262 -5.621,10.078 -5.621,17.5 0,7.891 1.949,14.219 5.941,18.91 4.059,4.692 9.527,7.032 16.399,7.032 6.14,0 11.101,-2.301 14.851,-6.872 3.75,-4.609 5.617,-10.589 5.617,-17.968 v -2.813 h -34.367 c 0.309,-4.687 1.328,-8.289 3.117,-10.789 2.274,-3.039 5.821,-4.531 10.633,-4.531 3,0 5.617,0.82 7.809,2.5 2.269,1.762 3.672,3.953 4.218,6.57 h 7.813 c -1.172,-5.117 -3.512,-9.027 -7.031,-11.719 -3.551,-2.742 -8.09,-4.07 -13.59,-4.07 z m 13.121,28.442 c -0.231,4.257 -1.25,7.66 -3.121,10.16 -2.192,2.687 -5.391,4.058 -9.539,4.058 -4.18,0 -7.461,-1.558 -9.84,-4.691 -1.992,-2.418 -3.199,-5.578 -3.59,-9.527 z" /><path
         id="path46"
         style="fill:#fad15a;fill-opacity:1;fill-rule:nonzero;stroke:none"
         d="m 648.16,404.41 24.379,64.539 h 10 L 705.82,404.41 h -9.531 l -6.41,18.75 h -25.93 l -6.719,-18.75 z m 29.07,55.16 -10.468,-28.75 h 20.308 z" /><path
         id="path48"
         style="fill:#fad15a;fill-opacity:1;fill-rule:nonzero;stroke:none"
         d="m 725.309,403.16 c -4.61,0 -8.239,1.219 -10.93,3.602 -2.738,2.5 -4.07,5.82 -4.07,10 0,4.258 1.25,7.648 3.75,10.148 2.5,2.5 6.171,4.07 11.101,4.692 l 10.781,1.25 c 0.938,0.078 1.758,0.238 2.5,0.468 1.008,0.309 1.789,0.821 2.34,1.559 0.629,0.82 0.938,1.801 0.938,2.973 v 0.468 c 0,2.5 -1.02,4.41 -2.969,5.782 -1.871,1.449 -4.531,2.187 -7.969,2.187 -3.242,0 -5.781,-0.777 -7.66,-2.34 -1.793,-1.488 -2.891,-3.679 -3.281,-6.57 h -7.18 c 0.309,5.082 2.07,8.953 5.309,11.57 3.32,2.571 8.011,3.903 14.062,3.903 5.699,0 10.039,-1.25 12.969,-3.75 3.012,-2.5 4.531,-6.09 4.531,-10.782 v -25.941 c 0,-0.738 0.239,-1.359 0.778,-1.867 0.511,-0.43 1.14,-0.633 1.882,-0.633 0.309,0 0.661,0 1.09,0 0.391,0.082 0.86,0.203 1.41,0.32 v -5.789 c -0.742,-0.308 -1.531,-0.5 -2.351,-0.621 -0.86,-0.199 -1.559,-0.309 -2.18,-0.309 -2.93,0 -5.082,0.86 -6.41,2.5 -0.941,1.008 -1.641,2.54 -2.031,4.532 -0.547,-0.742 -1.168,-1.41 -1.879,-2.032 -3.981,-3.558 -8.82,-5.32 -14.531,-5.32 z m 16.41,19.852 v 5.148 c -1.489,-0.738 -3.129,-1.211 -5,-1.398 l -7.188,-1.102 c -3.871,-0.539 -6.679,-1.398 -8.441,-2.648 -1.68,-1.25 -2.5,-2.973 -2.5,-5.16 0,-2.622 0.672,-4.653 2.031,-6.09 1.449,-1.371 3.52,-2.032 6.258,-2.032 4.141,0 7.652,1.09 10.461,3.282 1.961,1.636 3.281,3.468 3.91,5.468 0.078,0.309 0.199,0.86 0.309,1.719 0.082,0.821 0.16,1.75 0.16,2.813 z" /><path
         id="path50"
         style="fill:#fad15a;fill-opacity:1;fill-rule:nonzero;stroke:none"
         d="m 789.922,437.852 c -0.231,2.578 -1.332,4.57 -3.281,5.937 -1.871,1.441 -4.371,2.191 -7.5,2.191 -3.36,0 -5.903,-0.589 -7.661,-1.718 -1.679,-1.172 -2.5,-2.813 -2.5,-5 0,-1.68 0.629,-2.93 1.879,-3.75 1.129,-0.864 3.52,-1.68 7.192,-2.5 l 8.121,-2.032 c 4.566,-1.058 7.848,-2.582 9.848,-4.531 1.871,-2 2.808,-4.687 2.808,-8.129 0,-4.691 -1.68,-8.398 -5,-11.09 -3.359,-2.742 -7.887,-4.07 -13.598,-4.07 -6.679,0 -11.64,1.289 -14.839,3.91 -3.243,2.578 -5,6.719 -5.313,12.34 h 7.5 c 0.391,-3.359 1.602,-5.781 3.594,-7.34 1.949,-1.48 5,-2.191 9.058,-2.191 3.52,0 6.18,0.672 7.969,2.031 1.879,1.328 2.821,3.32 2.821,5.942 0,1.636 -0.59,2.886 -1.719,3.75 -1.25,0.82 -3.711,1.636 -7.352,2.5 l -8.121,2.027 c -4.488,1.019 -7.656,2.5 -9.527,4.383 -1.879,1.867 -2.821,4.527 -2.821,7.968 0,4.372 1.571,7.852 4.692,10.469 3.207,2.571 7.539,3.903 12.969,3.903 5.39,0 9.73,-1.372 12.968,-4.063 3.2,-2.617 4.922,-6.25 5.161,-10.937 z" /><path
         id="path52"
         style="fill:#fad15a;fill-opacity:1;fill-rule:nonzero;stroke:none"
         d="m 807.891,404.41 v 64.539 h 7.968 v -23.91 l 1.411,1.723 c 3.429,4.058 7.691,6.09 12.808,6.09 5.192,0 9.223,-1.403 12.031,-4.223 2.813,-2.809 4.219,-6.828 4.219,-12.027 V 404.41 h -7.969 v 30.32 c 0,3.821 -0.738,6.602 -2.187,8.282 -1.481,1.758 -3.902,2.648 -7.344,2.648 -3.988,0 -7.148,-1.48 -9.527,-4.371 -2.313,-2.93 -3.442,-6.84 -3.442,-11.719 v -25.16 z" /><path
         id="path54"
         style="fill:#fad15a;fill-opacity:1;fill-rule:nonzero;stroke:none"
         d="m 858.32,451.449 h 7.96875 V 404.4099 H 858.32 Z m 0,17.5 h 7.96875 v -8.91016 H 858.32 Z" /><path
         id="path56"
         style="fill:#fad15a;fill-opacity:1;fill-rule:nonzero;stroke:none"
         d="m 916.328,451.449 -17.969,-48.597 c -2.738,-7.192 -5.16,-11.872 -7.339,-14.063 -2.192,-2.269 -5.43,-3.437 -9.692,-3.437 -1.488,0 -2.777,0.16 -3.906,0.468 v 7.34 c 1.25,-0.39 2.738,-0.66 4.527,-0.781 1.879,0 3.36,0.781 4.531,2.351 1.25,1.481 2.579,4.18 4.071,8.122 l 0.148,0.777 -17.5,47.82 h 9.071 l 12.652,-38.91 12.656,38.91 z" /><path
         id="path58"
         style="fill:#fad15a;fill-opacity:1;fill-rule:nonzero;stroke:none"
         d="m 935.551,403.16 c -4.61,0 -8.25,1.219 -10.942,3.602 -2.73,2.5 -4.058,5.82 -4.058,10 0,4.258 1.25,7.648 3.75,10.148 2.5,2.5 6.168,4.07 11.09,4.692 l 10.781,1.25 c 0.937,0.078 1.758,0.238 2.5,0.468 1.019,0.309 1.797,0.821 2.348,1.559 0.621,0.82 0.929,1.801 0.929,2.973 v 0.468 c 0,2.5 -1.008,4.41 -2.969,5.782 -1.871,1.449 -4.531,2.187 -7.96,2.187 -3.25,0 -5.79,-0.777 -7.661,-2.34 -1.8,-1.488 -2.89,-3.679 -3.281,-6.57 h -7.187 c 0.308,5.082 2.07,8.953 5.308,11.57 3.321,2.571 8.012,3.903 14.071,3.903 5.699,0 10.031,-1.25 12.96,-3.75 3.008,-2.5 4.54,-6.09 4.54,-10.782 v -25.941 c 0,-0.738 0.23,-1.359 0.781,-1.867 0.5,-0.43 1.129,-0.633 1.871,-0.633 0.308,0 0.668,0 1.098,0 0.39,0.082 0.859,0.203 1.402,0.32 v -5.789 c -0.742,-0.308 -1.524,-0.5 -2.344,-0.621 -0.859,-0.199 -1.558,-0.309 -2.187,-0.309 -2.93,0 -5.082,0.86 -6.411,2.5 -0.929,1.008 -1.64,2.54 -2.031,4.532 -0.539,-0.742 -1.168,-1.41 -1.871,-2.032 -3.988,-3.558 -8.828,-5.32 -14.527,-5.32 z m 16.398,19.852 v 5.148 c -1.48,-0.738 -3.121,-1.211 -5,-1.398 l -7.179,-1.102 c -3.872,-0.539 -6.68,-1.398 -8.442,-2.648 -1.68,-1.25 -2.5,-2.973 -2.5,-5.16 0,-2.622 0.66,-4.653 2.031,-6.09 1.442,-1.371 3.52,-2.032 6.25,-2.032 4.141,0 7.661,1.09 10.469,3.282 1.953,1.636 3.281,3.468 3.902,5.468 0.079,0.309 0.2,0.86 0.321,1.719 0.078,0.821 0.148,1.75 0.148,2.813 z" /><path
         id="path60"
         style="fill:#fad15a;fill-opacity:1;fill-rule:nonzero;stroke:none"
         d="m 973.121,404.41 v 47.039 h 7.66 v -6.879 l 1.719,2.192 c 3.441,4.058 7.699,6.09 12.809,6.09 5.201,0 9.221,-1.403 12.031,-4.223 2.82,-2.809 4.22,-6.828 4.22,-12.027 V 404.41 h -7.97 v 29.539 c 0,4.141 -0.78,7.102 -2.34,8.903 -1.559,1.878 -4.18,2.808 -7.809,2.808 -3.75,0 -6.8,-1.48 -9.062,-4.371 -2.188,-2.93 -3.289,-6.84 -3.289,-11.719 v -25.16 z" /><path
         id="path62"
         style="fill:#fad15a;fill-opacity:1;fill-rule:nonzero;stroke:none"
         d="m 1035.74,403.16 c -4.61,0 -8.24,1.219 -10.94,3.602 -2.73,2.5 -4.06,5.82 -4.06,10 0,4.258 1.25,7.648 3.75,10.148 2.5,2.5 6.17,4.07 11.1,4.692 l 10.78,1.25 c 0.93,0.078 1.75,0.238 2.5,0.468 1.01,0.309 1.79,0.821 2.34,1.559 0.63,0.82 0.94,1.801 0.94,2.973 v 0.468 c 0,2.5 -1.02,4.41 -2.97,5.782 -1.88,1.449 -4.53,2.187 -7.97,2.187 -3.24,0 -5.78,-0.777 -7.66,-2.34 -1.79,-1.488 -2.89,-3.679 -3.28,-6.57 h -7.18 c 0.31,5.082 2.07,8.953 5.31,11.57 3.32,2.571 8.01,3.903 14.06,3.903 5.7,0 10.04,-1.25 12.97,-3.75 3.01,-2.5 4.53,-6.09 4.53,-10.782 v -25.941 c 0,-0.738 0.24,-1.359 0.78,-1.867 0.51,-0.43 1.14,-0.633 1.88,-0.633 0.31,0 0.66,0 1.09,0 0.39,0.082 0.86,0.203 1.41,0.32 v -5.789 c -0.74,-0.308 -1.53,-0.5 -2.35,-0.621 -0.86,-0.199 -1.56,-0.309 -2.18,-0.309 -2.93,0 -5.08,0.86 -6.41,2.5 -0.94,1.008 -1.64,2.54 -2.03,4.532 -0.55,-0.742 -1.17,-1.41 -1.88,-2.032 -3.98,-3.558 -8.82,-5.32 -14.53,-5.32 z m 16.41,19.852 v 5.148 c -1.49,-0.738 -3.13,-1.211 -5,-1.398 l -7.19,-1.102 c -3.87,-0.539 -6.68,-1.398 -8.44,-2.648 -1.68,-1.25 -2.5,-2.973 -2.5,-5.16 0,-2.622 0.67,-4.653 2.03,-6.09 1.45,-1.371 3.52,-2.032 6.25,-2.032 4.15,0 7.66,1.09 10.47,3.282 1.96,1.636 3.28,3.468 3.91,5.468 0.08,0.309 0.2,0.86 0.31,1.719 0.08,0.821 0.16,1.75 0.16,2.813 z" /><path
         id="path64"
         style="fill:#fad15a;fill-opacity:1;fill-rule:nonzero;stroke:none"
         d="m 1138.75,450.352 c -0.43,4.058 -2.03,7.187 -4.84,9.378 -2.82,2.18 -6.64,3.282 -11.41,3.282 -4.92,0 -8.67,-0.942 -11.25,-2.813 -2.5,-1.879 -3.75,-4.687 -3.75,-8.437 0,-2.422 0.82,-4.223 2.5,-5.473 1.76,-1.25 5.2,-2.5 10.31,-3.75 l 11.25,-2.66 c 6.02,-1.481 10.32,-3.59 12.82,-6.399 2.57,-2.742 3.9,-6.64 3.9,-11.718 0,-5.864 -2.26,-10.473 -6.72,-13.91 -4.37,-3.442 -10.39,-5.153 -17.97,-5.153 -8.43,0 -15,1.949 -19.68,5.93 -4.69,3.832 -7.03,9.141 -7.03,15.941 v 0.469 h 8.12 c 0.08,-4.687 1.76,-8.359 5,-10.937 3.2,-2.5 7.73,-3.75 13.59,-3.75 5.39,0 9.46,0.937 12.19,2.808 2.81,1.879 4.22,4.57 4.22,8.129 0,3.121 -0.94,5.391 -2.81,6.871 -1.8,1.449 -5.43,2.86 -10.94,4.219 l -11.25,2.66 c -5.74,1.332 -9.8,3.199 -12.19,5.621 -2.42,2.391 -3.59,5.711 -3.59,10 0,6.141 2.07,11.02 6.25,14.692 4.14,3.628 9.84,5.468 17.03,5.468 7.27,0 13.05,-1.84 17.34,-5.468 4.38,-3.672 6.64,-8.672 6.88,-15 z" /><path
         id="path66"
         style="fill:#fad15a;fill-opacity:1;fill-rule:nonzero;stroke:none"
         d="m 1177.62,403.16 c -6.49,0 -11.72,2.27 -15.78,6.879 -4.07,4.57 -6.1,10.551 -6.1,17.973 0,7.379 2.03,13.359 6.1,17.968 4.06,4.571 9.29,6.872 15.78,6.872 6.56,0 11.79,-2.301 15.78,-6.872 4.06,-4.609 6.09,-10.589 6.09,-17.968 0,-7.422 -2.03,-13.403 -6.09,-17.973 -3.99,-4.609 -9.22,-6.879 -15.78,-6.879 z m 0,6.719 c 4.14,0 7.42,1.601 9.84,4.851 2.5,3.321 3.75,7.731 3.75,13.282 0,5.508 -1.25,9.879 -3.75,13.117 -2.42,3.211 -5.7,4.851 -9.84,4.851 -4.18,0 -7.5,-1.64 -10,-4.851 -2.42,-3.238 -3.6,-7.609 -3.6,-13.117 0,-5.551 1.18,-9.961 3.6,-13.282 2.5,-3.25 5.82,-4.851 10,-4.851 z" /><path
         id="path68"
         style="fill:#fad15a;fill-opacity:1;fill-rule:nonzero;stroke:none"
         d="m 1245.7,421.289 c -0.86,-5.937 -2.97,-10.469 -6.4,-13.59 -3.36,-3.051 -7.78,-4.539 -13.28,-4.539 -6.25,0 -11.25,2.231 -15,6.719 -3.75,4.461 -5.63,10.512 -5.63,18.133 0,7.578 1.91,13.629 5.78,18.117 3.83,4.461 9.06,6.723 15.63,6.723 5.62,0 10.08,-1.563 13.43,-4.692 3.44,-3.039 5.24,-7.262 5.47,-12.648 h -7.65 c -0.32,3.32 -1.53,5.859 -3.6,7.648 -1.99,1.879 -4.65,2.82 -7.97,2.82 -3.98,0 -7.1,-1.64 -9.37,-4.851 -2.31,-3.117 -3.44,-7.5 -3.44,-13.117 0,-6.063 1.02,-10.59 3.13,-13.602 2.18,-3.039 5.31,-4.531 9.37,-4.531 3.13,0 5.71,0.98 7.81,2.973 2.07,1.949 3.44,4.769 4.07,8.437 z" /><path
         id="path70"
         style="fill:#fad15a;fill-opacity:1;fill-rule:nonzero;stroke:none"
         d="m 1253.83,451.449 h 7.9688 v -47.0391 h -7.9688 z m 0,17.5 h 7.9688 v -8.91016 h -7.9688 z" /><path
         id="path72"
         style="fill:#fad15a;fill-opacity:1;fill-rule:nonzero;stroke:none"
         d="m 1292.77,403.16 c -6.68,0 -11.95,2.07 -15.78,6.25 -3.75,4.262 -5.62,10.078 -5.62,17.5 0,7.891 1.95,14.219 5.93,18.91 4.07,4.692 9.54,7.032 16.41,7.032 6.13,0 11.09,-2.301 14.84,-6.872 3.75,-4.609 5.63,-10.589 5.63,-17.968 v -2.813 h -34.38 c 0.32,-4.687 1.33,-8.289 3.13,-10.789 2.27,-3.039 5.82,-4.531 10.62,-4.531 3.01,0 5.63,0.82 7.82,2.5 2.26,1.762 3.67,3.953 4.22,6.57 h 7.81 c -1.17,-5.117 -3.52,-9.027 -7.03,-11.719 -3.56,-2.742 -8.09,-4.07 -13.6,-4.07 z m 13.13,28.442 c -0.24,4.257 -1.25,7.66 -3.13,10.16 -2.18,2.687 -5.39,4.058 -9.53,4.058 -4.18,0 -7.46,-1.558 -9.84,-4.691 -1.99,-2.418 -3.2,-5.578 -3.6,-9.527 z" /><path
         id="path74"
         style="fill:#fad15a;fill-opacity:1;fill-rule:nonzero;stroke:none"
         d="m 1340.98,404.41 c -2.74,-0.39 -4.69,-0.621 -5.94,-0.621 -3.44,0 -5.9,0.781 -7.34,2.34 -1.37,1.57 -2.04,4.141 -2.04,7.82 v 31.09 h -6.56 v 6.41 h 6.56 v 13.121 h 7.82 v -13.121 h 7.5 v -6.41 h -7.5 v -31.09 c 0,-1.058 0.39,-1.879 1.25,-2.5 0.82,-0.629 1.95,-0.937 3.43,-0.937 h 2.82 z" /><path
         id="path76"
         style="fill:#fad15a;fill-opacity:1;fill-rule:nonzero;stroke:none"
         d="m 1386.88,451.449 -17.97,-48.597 c -2.74,-7.192 -5.16,-11.872 -7.35,-14.063 -2.18,-2.269 -5.43,-3.437 -9.68,-3.437 -1.49,0 -2.78,0.16 -3.91,0.468 v 7.34 c 1.25,-0.39 2.73,-0.66 4.53,-0.781 1.88,0 3.36,0.781 4.53,2.351 1.25,1.481 2.58,4.18 4.06,8.122 l 0.16,0.777 -17.5,47.82 h 9.06 l 12.66,-38.91 12.65,38.91 z" /><path
         id="path78"
         style="fill:#fad15a;fill-opacity:1;fill-rule:nonzero;stroke:none"
         d="m 188.59,288.629 v 64.531 h 26.57 c 8.121,0 14.57,-2.93 19.371,-8.75 4.879,-5.859 7.348,-13.711 7.348,-23.59 0,-9.8 -2.5,-17.621 -7.5,-23.441 -4.93,-5.859 -11.57,-8.75 -20,-8.75 z m 8.75,7.5 h 15.941 c 6.25,0 11.098,2.109 14.528,6.41 3.441,4.371 5.16,10.473 5.16,18.281 0,8.012 -1.68,14.141 -5,18.442 -3.239,4.367 -7.891,6.558 -13.91,6.558 H 197.34 Z m 54.73,-7.5 v 64.531 h 7.969 v -23.898 l 1.41,1.718 c 3.43,4.059 7.692,6.09 12.813,6.09 5.187,0 9.218,-1.41 12.027,-4.218 2.813,-2.813 4.223,-6.832 4.223,-12.032 v -32.191 h -7.973 v 30.32 c 0,3.821 -0.738,6.602 -2.187,8.281 -1.481,1.75 -3.903,2.649 -7.34,2.649 -3.992,0 -7.153,-1.481 -9.532,-4.367 -2.308,-2.93 -3.441,-6.84 -3.441,-11.723 v -25.16 z" /><path
         id="path80"
         style="fill:#fad15a;fill-opacity:1;fill-rule:nonzero;stroke:none"
         d="m 314.691,287.379 c -4.613,0 -8.242,1.211 -10.941,3.601 -2.73,2.5 -4.059,5.821 -4.059,10 0,4.25 1.25,7.649 3.75,10.149 2.5,2.5 6.168,4.07 11.09,4.691 l 10.778,1.25 c 0.941,0.078 1.761,0.231 2.5,0.469 1.019,0.313 1.8,0.82 2.351,1.563 0.621,0.82 0.93,1.796 0.93,2.968 v 0.469 c 0,2.5 -1.012,4.41 -2.969,5.781 -1.871,1.45 -4.531,2.192 -7.961,2.192 -3.25,0 -5.781,-0.782 -7.66,-2.352 -1.801,-1.48 -2.891,-3.672 -3.281,-6.558 h -7.188 c 0.309,5.078 2.071,8.949 5.309,11.558 3.32,2.578 8.012,3.91 14.07,3.91 5.699,0 10.039,-1.25 12.969,-3.75 3,-2.5 4.531,-6.09 4.531,-10.781 v -25.937 c 0,-0.743 0.231,-1.372 0.781,-1.872 0.508,-0.429 1.129,-0.628 1.868,-0.628 0.32,0 0.671,0 1.101,0 0.391,0.078 0.86,0.199 1.399,0.308 v -5.781 c -0.739,-0.309 -1.52,-0.508 -2.34,-0.617 -0.86,-0.203 -1.559,-0.313 -2.188,-0.313 -2.929,0 -5.082,0.852 -6.41,2.5 -0.93,1.012 -1.641,2.531 -2.031,4.531 -0.539,-0.75 -1.168,-1.41 -1.871,-2.031 -3.989,-3.558 -8.828,-5.32 -14.528,-5.32 z m 16.399,19.851 v 5.149 c -1.481,-0.738 -3.121,-1.207 -5,-1.399 l -7.18,-1.101 c -3.871,-0.539 -6.68,-1.399 -8.441,-2.649 -1.68,-1.25 -2.5,-2.968 -2.5,-5.16 0,-2.621 0.66,-4.648 2.031,-6.09 1.449,-1.371 3.52,-2.031 6.25,-2.031 4.141,0 7.66,1.09 10.469,3.281 1.953,1.641 3.281,3.469 3.902,5.469 0.078,0.313 0.199,0.852 0.32,1.711 0.079,0.82 0.149,1.762 0.149,2.82 z" /><path
         id="path82"
         style="fill:#fad15a;fill-opacity:1;fill-rule:nonzero;stroke:none"
         d="m 352.27,288.629 v 47.031 h 7.652 v -6.871 l 1.719,2.191 c 3.437,4.059 7.699,6.09 12.808,6.09 5.199,0 9.223,-1.41 12.031,-4.218 2.821,-2.813 4.219,-6.832 4.219,-12.032 v -32.191 h -7.969 v 29.531 c 0,4.141 -0.781,7.11 -2.339,8.91 -1.563,1.879 -4.18,2.809 -7.813,2.809 -3.75,0 -6.797,-1.481 -9.058,-4.367 -2.192,-2.93 -3.29,-6.84 -3.29,-11.723 v -25.16 z" /><path
         id="path84"
         style="fill:#fad15a;fill-opacity:1;fill-rule:nonzero;stroke:none"
         d="m 421.602,287.379 c -6.481,0 -11.723,2.269 -15.782,6.883 -4.058,4.57 -6.09,10.539 -6.09,17.968 0,7.379 2.032,13.36 6.09,17.969 4.059,4.571 9.301,6.871 15.782,6.871 6.558,0 11.796,-2.3 15.777,-6.871 4.07,-4.609 6.101,-10.59 6.101,-17.969 0,-7.429 -2.031,-13.398 -6.101,-17.968 -3.981,-4.614 -9.219,-6.883 -15.777,-6.883 z m 0,6.723 c 4.136,0 7.418,1.597 9.847,4.847 2.5,3.321 3.75,7.731 3.75,13.281 0,5.5 -1.25,9.879 -3.75,13.122 -2.429,3.199 -5.711,4.847 -9.847,4.847 -4.18,0 -7.5,-1.648 -10,-4.847 -2.422,-3.243 -3.59,-7.622 -3.59,-13.122 0,-5.55 1.168,-9.96 3.59,-13.281 2.5,-3.25 5.82,-4.847 10,-4.847 z" /><path
         id="path86"
         style="fill:#fad15a;fill-opacity:1;fill-rule:nonzero;stroke:none"
         d="m 453.551,288.629 v 47.031 h 7.66 v -8.121 c 0.629,1.332 1.289,2.5 2.027,3.441 3.012,4.059 6.723,6.09 11.102,6.09 0.699,0 1.441,-0.16 2.18,-0.468 v -7.973 h -1.559 c -4.301,0 -7.621,-1.328 -10,-3.899 -2.301,-2.5 -3.441,-6.179 -3.441,-10.941 v -25.16 z" /><path
         id="path88"
         style="fill:#fad15a;fill-opacity:1;fill-rule:nonzero;stroke:none"
         d="m 482.852,335.66 h 7.96875 V 288.6287 H 482.852 Z m 0,17.5 h 7.96875 v -8.89844 H 482.852 Z" /><path
         id="path90"
         style="fill:#fad15a;fill-opacity:1;fill-rule:nonzero;stroke:none"
         d="m 529.57,288.629 v 64.531 h 28.129 c 6.321,0 11.25,-1.558 14.68,-4.68 3.519,-3.128 5.32,-7.46 5.32,-12.968 0,-6.172 -1.801,-11.024 -5.32,-14.532 -3.43,-3.441 -8.359,-5.16 -14.68,-5.16 -8.25,0.078 -14.769,0.078 -19.539,0 v -27.191 z m 8.59,34.691 h 17.5 c 4.461,0 7.738,0.942 9.852,2.809 2.187,1.961 3.277,5 3.277,9.07 0,3.633 -1.09,6.281 -3.277,7.961 -2.114,1.762 -5.391,2.66 -9.852,2.66 h -17.5 z" /><path
         id="path92"
         style="fill:#fad15a;fill-opacity:1;fill-rule:nonzero;stroke:none"
         d="m 595.941,335.66 v -30.308 c 0,-3.981 0.7,-6.832 2.18,-8.59 1.57,-1.801 4.07,-2.66 7.5,-2.66 3.758,0 6.719,1.449 8.91,4.378 2.27,3 3.438,7.032 3.438,12.032 v 25.148 h 7.972 v -47.031 h -7.5 v 7.191 c -0.55,-0.859 -1.171,-1.679 -1.882,-2.5 -3.36,-3.98 -7.579,-5.941 -12.649,-5.941 -5.32,0 -9.34,1.293 -12.031,3.91 -2.617,2.691 -3.91,6.723 -3.91,12.031 v 32.34 z" /><path
         id="path94"
         style="fill:#fad15a;fill-opacity:1;fill-rule:nonzero;stroke:none"
         d="m 637.73,288.629 v 47.031 h 7.661 v -6.871 l 1.718,2.191 c 3.442,4.059 7.692,6.09 12.813,6.09 5.199,0 9.219,-1.41 12.027,-4.218 2.821,-2.813 4.223,-6.832 4.223,-12.032 v -32.191 h -7.973 v 29.531 c 0,4.141 -0.777,7.11 -2.34,8.91 -1.558,1.879 -4.179,2.809 -7.808,2.809 -3.75,0 -6.801,-1.481 -9.071,-4.367 -2.179,-2.93 -3.281,-6.84 -3.281,-11.723 v -25.16 z" /><path
         id="path96"
         style="fill:#fad15a;fill-opacity:1;fill-rule:nonzero;stroke:none"
         d="m 707.07,287.379 c -6.679,0 -11.949,2.07 -15.781,6.25 -3.75,4.262 -5.629,10.082 -5.629,17.5 0,7.891 1.961,14.223 5.942,18.91 4.058,4.691 9.527,7.031 16.41,7.031 6.129,0 11.09,-2.3 14.84,-6.871 3.75,-4.609 5.628,-10.59 5.628,-17.969 v -2.82 h -34.378 c 0.308,-4.68 1.328,-8.281 3.128,-10.781 2.258,-3.039 5.821,-4.527 10.622,-4.527 3.007,0 5.628,0.82 7.808,2.5 2.27,1.757 3.68,3.949 4.219,6.558 h 7.82 c -1.179,-5.109 -3.519,-9.019 -7.039,-11.711 -3.551,-2.738 -8.082,-4.07 -13.59,-4.07 z m 13.129,28.441 c -0.238,4.262 -1.25,7.66 -3.129,10.16 -2.191,2.692 -5.39,4.059 -9.531,4.059 -4.18,0 -7.461,-1.559 -9.84,-4.687 -2,-2.422 -3.211,-5.582 -3.597,-9.532 z" /><path
         id="path98"
         style="fill:#fad15a;fill-opacity:1;fill-rule:nonzero;stroke:none"
         d="m 787.27,303.789 h -27.969 v 7.34 l 29.371,40.781 h 6.558 v -41.398 h 8.911 v -6.723 h -8.911 v -15.16 h -7.96 z m 0,6.723 v 28.898 l -20.161,-28.281 -0.468,-0.617 z" /><path
         id="path100"
         style="fill:#fad15a;fill-opacity:1;fill-rule:nonzero;stroke:none"
         d="m 831.129,288.629 v 44.851 h -14.84 v 6.399 c 4.371,-0.109 7.891,0.82 10.621,2.82 2.82,1.949 4.852,5.031 6.102,9.211 h 6.558 v -63.281 z" /><path
         id="path102"
         style="fill:#fad15a;fill-opacity:1;fill-rule:nonzero;stroke:none"
         d="m 881.211,288.629 v 44.851 h -14.84 v 6.399 c 4.367,-0.109 7.891,0.82 10.617,2.82 2.813,1.949 4.852,5.031 6.102,9.211 h 6.558 v -63.281 z" /><path
         id="path104"
         style="fill:#fad15a;fill-opacity:1;fill-rule:nonzero;stroke:none"
         d="m 932.422,286.91 c -6.871,0 -12.262,2.82 -16.094,8.442 -3.75,5.628 -5.629,13.628 -5.629,24.058 0,10.391 1.879,18.442 5.629,24.07 3.832,5.622 9.223,8.43 16.094,8.43 6.957,0 12.348,-2.808 16.098,-8.43 3.75,-5.628 5.621,-13.679 5.621,-24.07 0,-10.43 -1.871,-18.43 -5.621,-24.058 -3.75,-5.622 -9.141,-8.442 -16.098,-8.442 z m 0,7.192 c 4.457,0 7.808,2.07 10,6.25 2.269,4.257 3.359,10.628 3.277,19.058 0.082,8.442 -1.008,14.731 -3.277,18.91 -2.192,4.262 -5.543,6.41 -10,6.41 -4.371,0 -7.731,-2.148 -10,-6.41 -2.192,-4.179 -3.281,-10.468 -3.281,-18.91 0,-8.43 1.089,-14.801 3.281,-19.058 2.269,-4.18 5.629,-6.25 10,-6.25 z" /><path
         id="path106"
         style="fill:#fad15a;fill-opacity:1;fill-rule:nonzero;stroke:none"
         d="m 987.66,303.789 h -27.969 v 7.34 l 29.368,40.781 h 6.562 v -41.398 h 8.909 v -6.723 h -8.909 v -15.16 h -7.961 z m 0,6.723 v 28.898 l -20.16,-28.281 -0.469,-0.617 z" /><path
         id="path108"
         style="fill:#fad15a;fill-opacity:1;fill-rule:nonzero;stroke:none"
         d="m 1020.12,288.629 c 1.95,10.633 5.15,20.391 9.53,29.383 4.26,8.75 9.76,17.07 16.56,25 h -35.31 v 7.648 h 43.75 v -7.031 c -6.88,-8.117 -12.46,-16.68 -16.72,-25.617 -4.18,-9.063 -7.19,-18.871 -9.06,-29.383 z" /><path
         id="path110"
         style="fill:#fad15a;fill-opacity:1;fill-rule:nonzero;stroke:none"
         d="m 204.531,810.699 c -5.551,0 -9.961,1.492 -13.281,4.379 -3.359,3.012 -5.121,7.192 -5.309,12.5 h 7.5 c 0.387,-3.238 1.559,-5.738 3.438,-7.5 1.871,-1.797 4.41,-2.656 7.652,-2.656 4.77,0 8.481,2.656 11.09,7.969 1.879,3.949 3.051,9.14 3.598,15.629 -3.989,-4.93 -8.867,-7.348 -14.688,-7.348 -5.859,0 -10.582,1.918 -14.222,5.777 -3.547,3.832 -5.309,8.949 -5.309,15.321 0,6.25 1.91,11.281 5.781,15.152 3.949,3.828 9.098,5.777 15.469,5.777 6.871,0 12.109,-2.461 15.781,-7.34 3.629,-4.808 5.469,-11.64 5.469,-20.468 0,-11.871 -1.988,-21.051 -5.941,-27.5 -3.981,-6.481 -9.649,-9.692 -17.028,-9.692 z m 13.75,44.071 c 0,4.058 -1.172,7.339 -3.441,9.839 -2.301,2.582 -5.27,3.911 -8.899,3.911 -3.75,0 -6.8,-1.329 -9.062,-3.911 -2.309,-2.5 -3.438,-5.781 -3.438,-9.839 0,-4.18 1.129,-7.579 3.438,-10.161 2.262,-2.5 5.312,-3.75 9.062,-3.75 3.629,0 6.598,1.289 8.899,3.911 2.269,2.5 3.441,5.82 3.441,10 z m 49.649,3.75 c 0,3 -1.168,5.46 -3.442,7.339 -2.297,1.871 -5.226,2.813 -8.75,2.813 -3.75,0 -6.636,-1.172 -8.59,-3.442 -1.988,-2.3 -3.089,-5.742 -3.277,-10.308 h -7.66 c 0,6.637 1.719,11.758 5.16,15.308 3.508,3.641 8.469,5.469 14.84,5.469 5.937,0 10.699,-1.519 14.379,-4.527 3.75,-3.051 5.621,-6.992 5.621,-11.871 0,-4.922 -1.871,-8.871 -5.621,-11.879 -0.629,-0.543 -1.371,-1.051 -2.192,-1.563 1.442,-0.629 2.813,-1.41 4.063,-2.339 3.949,-3.129 5.937,-7.348 5.937,-12.661 0,-5.937 -2.109,-10.781 -6.25,-14.531 -4.058,-3.75 -9.339,-5.629 -15.777,-5.629 -7.109,0 -12.461,1.723 -16.101,5.16 -3.551,3.442 -5.469,8.629 -5.782,15.621 h 8.282 c 0.39,-4.921 1.64,-8.429 3.75,-10.621 2.191,-2.109 5.55,-3.129 10.16,-3.129 3.832,0 7.031,1.098 9.531,3.29 2.5,2.261 3.75,5.191 3.75,8.75 0,3.628 -1.211,6.558 -3.59,8.75 -2.109,1.871 -4.769,2.89 -7.973,3.121 -1.488,0.078 -2.886,0.16 -4.218,0.16 -1.371,0 -2.27,-0.082 -2.66,-0.16 v 6.879 c 0.628,-0.122 1.601,-0.161 2.968,-0.161 1.332,0 2.703,0.082 4.063,0.313 2.5,0.308 4.539,1.129 6.097,2.5 2.192,1.758 3.282,4.219 3.282,7.348 z" /><path
         id="path112"
         style="fill:#fad15a;fill-opacity:1;fill-rule:nonzero;stroke:none"
         d="m 327.07,857.109 c 0,-4.687 -1.211,-8.558 -3.59,-11.558 -2.429,-3.051 -6.878,-6.332 -13.441,-9.852 -7.187,-3.98 -12.109,-7.578 -14.687,-10.777 -1.051,-1.481 -1.954,-3.082 -2.653,-4.844 h 34.371 v -7.656 h -43.281 c 0,6.637 1.602,12.066 4.84,16.25 3.32,4.258 9.57,8.906 18.75,13.906 4.383,2.5 7.351,4.723 8.91,6.723 1.641,2.07 2.5,4.719 2.5,7.969 0,3.429 -1.211,6.171 -3.59,8.281 -2.429,2.179 -5.469,3.277 -9.219,3.277 -3.871,0 -6.96,-1.367 -9.218,-4.058 -2.192,-2.739 -3.403,-6.532 -3.602,-11.411 h -7.648 c -0.121,6.95 1.718,12.422 5.468,16.411 3.821,3.941 9.219,5.929 16.09,5.929 5.942,0 10.782,-1.719 14.532,-5.148 3.628,-3.563 5.468,-8.051 5.468,-13.442 z" /><path
         id="path114"
         style="fill:#fad15a;fill-opacity:1;fill-rule:nonzero;stroke:none"
         d="m 377.809,832.73 c 0,-6.48 -2.028,-11.789 -6.09,-15.929 -4.059,-4.071 -9.297,-6.102 -15.629,-6.102 -6.36,0 -11.481,1.571 -15.309,4.692 -3.75,3.199 -5.859,7.578 -6.25,13.129 h 8.129 c 0.391,-3.559 1.789,-6.25 4.219,-8.129 2.5,-1.871 5.66,-2.813 9.531,-2.813 3.82,0 6.949,1.293 9.371,3.902 2.379,2.7 3.598,6.141 3.598,10.321 0,4.371 -1.258,7.847 -3.758,10.469 -2.5,2.57 -5.891,3.902 -10.152,3.902 -2.309,0 -4.528,-0.582 -6.719,-1.723 -2.191,-1.051 -3.871,-2.461 -5,-4.219 l -6.719,0.469 4.528,33.75 h 32.82 v -7.648 H 347.5 l -2.66,-17.352 0.32,0.16 c 3.43,2.379 7.07,3.59 10.93,3.59 6.64,0 11.961,-1.828 15.941,-5.469 3.828,-3.75 5.778,-8.75 5.778,-15 z" /><path
         id="path116"
         style="fill:#fad15a;fill-opacity:1;fill-rule:nonzero;stroke:none"
         d="m 406.641,810.699 c -6.871,0 -12.262,2.821 -16.09,8.442 -3.75,5.629 -5.629,13.629 -5.629,24.058 0,10.391 1.879,18.442 5.629,24.071 3.828,5.621 9.219,8.429 16.09,8.429 6.949,0 12.339,-2.808 16.089,-8.429 3.75,-5.629 5.629,-13.68 5.629,-24.071 0,-10.429 -1.879,-18.429 -5.629,-24.058 -3.75,-5.621 -9.14,-8.442 -16.089,-8.442 z m 0,7.192 c 4.449,0 7.808,2.07 10,6.25 2.269,4.257 3.359,10.629 3.281,19.058 0.078,8.442 -1.012,14.731 -3.281,18.91 -2.192,4.262 -5.551,6.411 -10,6.411 -4.371,0 -7.731,-2.149 -10,-6.411 -2.192,-4.179 -3.282,-10.468 -3.282,-18.91 0,-8.429 1.09,-14.801 3.282,-19.058 2.269,-4.18 5.629,-6.25 10,-6.25 z" /><path
         id="path118"
         style="fill:#fad15a;fill-opacity:1;fill-rule:nonzero;stroke:none"
         d="m 477.379,857.109 c 0,-4.687 -1.207,-8.558 -3.59,-11.558 -2.418,-3.051 -6.879,-6.332 -13.437,-9.852 -7.192,-3.98 -12.114,-7.578 -14.692,-10.777 -1.051,-1.481 -1.949,-3.082 -2.648,-4.844 h 34.367 v -7.656 h -43.277 c 0,6.637 1.597,12.066 4.847,16.25 3.321,4.258 9.571,8.906 18.75,13.906 4.371,2.5 7.34,4.723 8.903,6.723 1.636,2.07 2.5,4.719 2.5,7.969 0,3.429 -1.211,6.171 -3.59,8.281 -2.422,2.179 -5.473,3.277 -9.223,3.277 -3.867,0 -6.949,-1.367 -9.219,-4.058 -2.191,-2.739 -3.398,-6.532 -3.59,-11.411 h -7.66 c -0.121,6.95 1.719,12.422 5.469,16.411 3.832,3.941 9.223,5.929 16.09,5.929 5.941,0 10.781,-1.719 14.531,-5.148 3.641,-3.563 5.469,-8.051 5.469,-13.442 z" /><path
         id="path120"
         style="fill:#fad15a;fill-opacity:1;fill-rule:nonzero;stroke:none"
         d="m 505.738,812.422 v 44.848 h -14.84 v 6.402 c 4.372,-0.121 7.891,0.816 10.622,2.808 2.82,1.961 4.851,5.04 6.101,9.219 h 6.559 v -63.277 z" /><path
         id="path122"
         style="fill:#fad15a;fill-opacity:1;fill-rule:nonzero;stroke:none"
         d="m 544.449,812.422 c 1.961,10.629 5.16,20.387 9.531,29.379 4.258,8.75 9.77,17.07 16.571,25 H 535.23 v 7.648 h 43.75 v -7.027 c -6.871,-8.121 -12.46,-16.684 -16.71,-25.621 -4.18,-9.071 -7.192,-18.871 -9.071,-29.379 z" /><path
         id="path124"
         style="fill:#fad15a;fill-opacity:1;fill-rule:nonzero;stroke:none"
         d="m 605.309,810.699 c -5.539,0 -9.957,1.492 -13.278,4.379 -3.359,3.012 -5.121,7.192 -5.312,12.5 h 7.5 c 0.39,-3.238 1.562,-5.738 3.441,-7.5 1.871,-1.797 4.41,-2.656 7.649,-2.656 4.769,0 8.48,2.656 11.101,7.969 1.871,3.949 3.039,9.14 3.59,15.629 -3.98,-4.93 -8.871,-7.348 -14.691,-7.348 -5.86,0 -10.579,1.918 -14.219,5.777 -3.551,3.832 -5.309,8.949 -5.309,15.321 0,6.25 1.918,11.281 5.778,15.152 3.953,3.828 9.101,5.777 15.472,5.777 6.879,0 12.11,-2.461 15.778,-7.34 3.64,-4.808 5.472,-11.64 5.472,-20.468 0,-11.871 -1.992,-21.051 -5.941,-27.5 -3.981,-6.481 -9.641,-9.692 -17.031,-9.692 z m 13.75,44.071 c 0,4.058 -1.168,7.339 -3.438,9.839 -2.301,2.582 -5.269,3.911 -8.902,3.911 -3.75,0 -6.797,-1.329 -9.059,-3.911 -2.308,-2.5 -3.441,-5.781 -3.441,-9.839 0,-4.18 1.133,-7.579 3.441,-10.161 2.262,-2.5 5.309,-3.75 9.059,-3.75 3.633,0 6.601,1.289 8.902,3.911 2.27,2.5 3.438,5.82 3.438,10 z" /><path
         id="path126"
         style="fill:#fad15a;fill-opacity:1;fill-rule:nonzero;stroke:none"
         d="m 657.148,810.699 c -6.878,0 -12.269,2.821 -16.097,8.442 -3.75,5.629 -5.621,13.629 -5.621,24.058 0,10.391 1.871,18.442 5.621,24.071 3.828,5.621 9.219,8.429 16.097,8.429 6.954,0 12.34,-2.808 16.09,-8.429 3.75,-5.629 5.633,-13.68 5.633,-24.071 0,-10.429 -1.883,-18.429 -5.633,-24.058 -3.75,-5.621 -9.136,-8.442 -16.09,-8.442 z m 0,7.192 c 4.454,0 7.813,2.07 10,6.25 2.262,4.257 3.364,10.629 3.282,19.058 0.082,8.442 -1.02,14.731 -3.282,18.91 -2.187,4.262 -5.546,6.411 -10,6.411 -4.378,0 -7.738,-2.149 -10,-6.411 -2.187,-4.179 -3.277,-10.468 -3.277,-18.91 0,-8.429 1.09,-14.801 3.277,-19.058 2.262,-4.18 5.622,-6.25 10,-6.25 z" /><path
         id="path128"
         style="fill:#fad15a;fill-opacity:1;fill-rule:nonzero;stroke:none"
         d="M 195.941,651.801 182.5,698.828 h 8.75 l 9.059,-37.5 9.07,37.5 h 8.902 l 9.379,-37.656 9.531,37.656 H 245 l -13.281,-47.027 h -8.438 l -9.691,36.719 -9.211,-36.719 z m 65.039,0 -13.441,47.027 h 8.75 l 9.063,-37.5 9.058,37.5 h 8.91 l 9.379,-37.656 9.531,37.656 h 7.809 l -13.277,-47.027 h -8.442 l -9.691,36.719 -9.219,-36.719 z" /><path
         id="path130"
         style="fill:#fad15a;fill-opacity:1;fill-rule:nonzero;stroke:none"
         d="m 326.02,651.801 -13.442,47.027 h 8.75 l 9.063,-37.5 9.058,37.5 h 8.91 l 9.371,-37.656 9.54,37.656 h 7.808 l -13.277,-47.027 h -8.442 l -9.687,36.719 -9.223,-36.719 z" /><path
         id="path132"
         style="fill:#fad15a;fill-opacity:1;fill-rule:nonzero;stroke:none"
         d="m 384.18,651.801 h 9.37891 v 9.52734 H 384.18 Z" /><path
         id="path134"
         style="fill:#fad15a;fill-opacity:1;fill-rule:nonzero;stroke:none"
         d="m 425.078,650.551 c -6.25,0 -11.25,2.34 -15,7.027 -3.75,4.692 -5.629,11.012 -5.629,19.063 0,7.07 1.762,12.738 5.321,17.031 3.628,4.379 8.351,6.558 14.21,6.558 5.821,0 10.399,-2.46 13.75,-7.339 l 0.629,-0.942 v 24.379 h 7.813 v -64.527 h -7.344 v 6.398 l -0.937,-1.398 c -3.243,-4.18 -7.5,-6.25 -12.813,-6.25 z m 0.473,42.5 c -4.379,0 -7.621,-1.41 -9.692,-4.223 -2.109,-2.808 -3.129,-7.308 -3.129,-13.437 0,-5.86 1.098,-10.313 3.29,-13.442 2.261,-3.121 5.46,-4.679 9.531,-4.679 3.828,0 6.91,1.441 9.219,4.371 2.378,2.89 3.589,6.718 3.589,11.41 0,6.437 -1.168,11.398 -3.437,14.84 -2.192,3.437 -5.313,5.16 -9.371,5.16 z" /><path
         id="path136"
         style="fill:#fad15a;fill-opacity:1;fill-rule:nonzero;stroke:none"
         d="m 476.449,650.551 c -6.679,0 -11.961,2.07 -15.789,6.25 -3.75,4.25 -5.621,10.078 -5.621,17.5 0,7.89 1.949,14.219 5.941,18.898 4.059,4.692 9.532,7.031 16.399,7.031 6.141,0 11.101,-2.3 14.851,-6.871 3.75,-4.609 5.622,-10.589 5.622,-17.968 v -2.813 H 463.48 c 0.309,-4.687 1.321,-8.277 3.122,-10.777 2.269,-3.051 5.82,-4.531 10.628,-4.531 3,0 5.622,0.82 7.809,2.5 2.262,1.75 3.672,3.941 4.223,6.558 h 7.808 c -1.172,-5.117 -3.519,-9.027 -7.031,-11.719 -3.559,-2.73 -8.09,-4.058 -13.59,-4.058 z m 13.121,28.429 c -0.23,4.258 -1.25,7.661 -3.121,10.161 -2.187,2.699 -5.398,4.058 -9.539,4.058 -4.18,0 -7.461,-1.558 -9.84,-4.679 -1.992,-2.43 -3.199,-5.59 -3.59,-9.54 z" /><path
         id="path138"
         style="fill:#fad15a;fill-opacity:1;fill-rule:nonzero;stroke:none"
         d="m 502.301,698.828 h 9.219 l 12.5,-38.437 13.128,38.437 h 8.75 l -17.66,-47.027 h -8.437 z" /><path
         id="path140"
         style="fill:#fad15a;fill-opacity:1;fill-rule:nonzero;stroke:none"
         d="m 562.148,692.27 v -40.469 h -7.808 v 40.469 h -6.57 v 6.558 h 6.57 v 7.973 c 0,3.508 0.969,6.129 2.961,7.808 2.078,1.762 5.199,2.661 9.379,2.661 h 3.441 v -7.192 l -3.133,0.152 c -1.558,0 -2.769,-0.539 -3.59,-1.558 -0.859,-0.942 -1.25,-2.301 -1.25,-4.063 v -5.781 h 7.973 v -6.558 z" /><path
         id="path142"
         style="fill:#fad15a;fill-opacity:1;fill-rule:nonzero;stroke:none"
         d="m 577.578,698.828 h 7.97266 V 651.8007 H 577.578 Z m 0,17.5 h 7.97266 v -8.90625 H 577.578 Z" /><path
         id="path144"
         style="fill:#fad15a;fill-opacity:1;fill-rule:nonzero;stroke:none"
         d="m 597.301,651.801 v 47.027 h 7.66 v -6.879 l 1.719,2.192 c 3.441,4.058 7.699,6.089 12.808,6.089 5.203,0 9.223,-1.402 12.032,-4.21 2.82,-2.821 4.218,-6.84 4.218,-12.04 v -32.179 h -7.968 v 29.527 c 0,4.141 -0.782,7.113 -2.34,8.902 -1.559,1.879 -4.18,2.821 -7.809,2.821 -3.75,0 -6.801,-1.492 -9.07,-4.379 -2.18,-2.934 -3.281,-6.832 -3.281,-11.723 v -25.148 z" /><path
         id="path146"
         style="fill:#fad15a;fill-opacity:1;fill-rule:nonzero;stroke:none"
         d="m 684.609,668.672 c -0.859,-5.942 -2.968,-10.473 -6.41,-13.594 -3.359,-3.047 -7.769,-4.527 -13.277,-4.527 -6.25,0 -11.25,2.219 -15,6.719 -3.75,4.449 -5.621,10.5 -5.621,18.121 0,7.578 1.91,13.629 5.777,18.129 3.832,4.449 9.063,6.71 15.621,6.71 5.629,0 10.082,-1.558 13.442,-4.679 3.437,-3.051 5.238,-7.27 5.468,-12.66 h -7.66 c -0.308,3.32 -1.519,5.859 -3.59,7.66 -1.988,1.871 -4.648,2.808 -7.968,2.808 -3.981,0 -7.11,-1.64 -9.371,-4.839 -2.309,-3.129 -3.442,-7.5 -3.442,-13.129 0,-6.051 1.012,-10.59 3.121,-13.59 2.192,-3.051 5.321,-4.531 9.379,-4.531 3.121,0 5.703,0.968 7.813,2.96 2.07,1.961 3.437,4.77 4.058,8.442 z" /><path
         id="path148"
         style="fill:#fad15a;fill-opacity:1;fill-rule:nonzero;stroke:none"
         d="m 711.641,650.551 c -6.481,0 -11.719,2.258 -15.782,6.871 -4.058,4.566 -6.089,10.547 -6.089,17.969 0,7.379 2.031,13.359 6.089,17.968 4.063,4.571 9.301,6.871 15.782,6.871 6.558,0 11.8,-2.3 15.781,-6.871 4.058,-4.609 6.098,-10.589 6.098,-17.968 0,-7.422 -2.04,-13.403 -6.098,-17.969 -3.981,-4.613 -9.223,-6.871 -15.781,-6.871 z m 0,6.719 c 4.14,0 7.418,1.601 9.839,4.839 2.5,3.321 3.75,7.731 3.75,13.282 0,5.507 -1.25,9.879 -3.75,13.129 -2.421,3.199 -5.699,4.839 -9.839,4.839 -4.18,0 -7.5,-1.64 -10,-4.839 -2.422,-3.25 -3.59,-7.622 -3.59,-13.129 0,-5.551 1.168,-9.961 3.59,-13.282 2.5,-3.238 5.82,-4.839 10,-4.839 z" /><path
         id="path150"
         style="fill:#fad15a;fill-opacity:1;fill-rule:nonzero;stroke:none"
         d="m 743.59,651.801 v 47.027 h 7.66 v -8.129 c 0.629,1.332 1.289,2.5 2.031,3.442 3.008,4.058 6.719,6.089 11.098,6.089 0.699,0 1.441,-0.152 2.18,-0.46 v -7.969 H 765 c -4.301,0 -7.621,-1.332 -10,-3.91 -2.301,-2.5 -3.441,-6.172 -3.441,-10.942 v -25.148 z" /><path
         id="path152"
         style="fill:#fad15a;fill-opacity:1;fill-rule:nonzero;stroke:none"
         d="m 771.949,698.828 h 7.66 v -6.719 l 0.313,0.621 c 3.437,5 7.887,7.5 13.437,7.5 6.129,0 10.981,-2.14 14.532,-6.402 3.629,-4.18 5.468,-9.918 5.468,-17.187 0,-8.121 -1.839,-14.532 -5.468,-19.219 -3.672,-4.613 -8.672,-6.871 -15,-6.871 -5.313,0 -9.532,2.027 -12.661,6.09 l -0.308,0.308 v -23.75 h -7.973 z m 20.473,-41.406 c 4.137,0 7.269,1.558 9.379,4.687 2.179,3.121 3.277,7.661 3.277,13.59 0,5.942 -1.058,10.321 -3.129,13.129 -1.988,2.813 -5.109,4.223 -9.371,4.223 -4.379,0 -7.617,-1.641 -9.687,-4.852 -1.993,-3.121 -2.969,-8.199 -2.969,-15.148 0,-5 1.098,-8.871 3.277,-11.571 2.192,-2.73 5.242,-4.058 9.223,-4.058 z" /><path
         id="path154"
         style="fill:#fad15a;fill-opacity:1;fill-rule:nonzero;stroke:none"
         d="m 824.691,651.801 h 9.37891 v 9.52734 H 824.691 Z" /><path
         id="path156"
         style="fill:#fad15a;fill-opacity:1;fill-rule:nonzero;stroke:none"
         d="m 884.801,668.672 c -0.852,-5.942 -2.961,-10.473 -6.403,-13.594 -3.359,-3.047 -7.777,-4.527 -13.277,-4.527 -6.25,0 -11.25,2.219 -15,6.719 -3.75,4.449 -5.633,10.5 -5.633,18.121 0,7.578 1.922,13.629 5.782,18.129 3.832,4.449 9.07,6.71 15.628,6.71 5.622,0 10.082,-1.558 13.442,-4.679 3.43,-3.051 5.23,-7.27 5.461,-12.66 h -7.653 c -0.308,3.32 -1.527,5.859 -3.597,7.66 -1.992,1.871 -4.641,2.808 -7.961,2.808 -3.988,0 -7.11,-1.64 -9.379,-4.839 -2.301,-3.129 -3.441,-7.5 -3.441,-13.129 0,-6.051 1.019,-10.59 3.128,-13.59 2.192,-3.051 5.313,-4.531 9.372,-4.531 3.128,0 5.71,0.968 7.82,2.96 2.07,1.961 3.43,4.77 4.058,8.442 z" /><path
         id="path158"
         style="fill:#fad15a;fill-opacity:1;fill-rule:nonzero;stroke:none"
         d="m 911.84,650.551 c -6.488,0 -11.719,2.258 -15.789,6.871 -4.063,4.566 -6.09,10.547 -6.09,17.969 0,7.379 2.027,13.359 6.09,17.968 4.07,4.571 9.301,6.871 15.789,6.871 6.558,0 11.789,-2.3 15.781,-6.871 4.059,-4.609 6.09,-10.589 6.09,-17.968 0,-7.422 -2.031,-13.403 -6.09,-17.969 -3.992,-4.613 -9.223,-6.871 -15.781,-6.871 z m 0,6.719 c 4.14,0 7.422,1.601 9.84,4.839 2.5,3.321 3.75,7.731 3.75,13.282 0,5.507 -1.25,9.879 -3.75,13.129 -2.418,3.199 -5.7,4.839 -9.84,4.839 -4.18,0 -7.5,-1.64 -10,-4.839 -2.43,-3.25 -3.602,-7.622 -3.602,-13.129 0,-5.551 1.172,-9.961 3.602,-13.282 2.5,-3.238 5.82,-4.839 10,-4.839 z" /><path
         id="path160"
         style="fill:#fad15a;fill-opacity:1;fill-rule:nonzero;stroke:none"
         d="m 942.73,651.801 v 47.027 h 7.661 v -7.027 l 1.558,2.179 c 3.52,4.141 7.742,6.25 12.66,6.25 4.262,0 7.661,-1.25 10.161,-3.75 1.011,-1.171 1.871,-2.421 2.5,-3.75 l 1.25,1.571 c 3.429,3.937 7.5,5.929 12.179,5.929 5,0 8.789,-1.359 11.411,-4.058 2.69,-2.731 4.06,-6.524 4.06,-11.402 v -32.969 h -7.971 v 30.308 c 0,3.512 -0.738,6.25 -2.179,8.121 -1.489,1.879 -3.598,2.821 -6.411,2.821 -3.437,0 -6.168,-1.371 -8.129,-4.071 -1.992,-2.609 -2.96,-6.21 -2.96,-10.781 v -26.398 h -7.969 v 32.179 c 0,2.899 -0.711,5.161 -2.031,6.719 -1.372,1.571 -3.29,2.352 -5.79,2.352 -3.55,0 -6.48,-1.531 -8.75,-4.531 -2.179,-3.051 -3.281,-6.879 -3.281,-11.571 v -25.148 z" /><path
         id="path162"
         style="fill:#fad15a;fill-opacity:1;fill-rule:nonzero;stroke:none"
         d="m 187.34,551.801 v 64.527 h 7.82 V 579.141 L 215,598.828 h 10.16 l -17.969,-17.5 19.059,-29.527 h -10.309 l -14.531,23.898 -6.25,-6.09 v -17.808 z m 57.191,-1.25 c -4.609,0 -8.242,1.211 -10.941,3.59 -2.731,2.5 -4.059,5.82 -4.059,10 0,4.257 1.25,7.66 3.75,10.16 2.5,2.5 6.168,4.058 11.098,4.679 l 10.781,1.25 c 0.93,0.079 1.75,0.239 2.5,0.469 1.012,0.321 1.789,0.821 2.34,1.571 0.621,0.82 0.941,1.789 0.941,2.96 v 0.469 c 0,2.5 -1.019,4.422 -2.972,5.781 -1.879,1.45 -4.528,2.192 -7.969,2.192 -3.238,0 -5.781,-0.781 -7.66,-2.344 -1.789,-1.488 -2.891,-3.668 -3.281,-6.558 h -7.18 c 0.312,5.07 2.07,8.941 5.312,11.558 3.321,2.582 8.008,3.902 14.059,3.902 5.699,0 10.039,-1.25 12.969,-3.75 3.011,-2.5 4.531,-6.089 4.531,-10.781 V 559.77 c 0,-0.75 0.23,-1.372 0.781,-1.879 0.508,-0.43 1.129,-0.621 1.879,-0.621 0.309,0 0.66,0 1.09,0 0.391,0.07 0.859,0.191 1.41,0.308 v -5.777 c -0.75,-0.321 -1.531,-0.512 -2.351,-0.629 -0.86,-0.192 -1.559,-0.313 -2.18,-0.313 -2.93,0 -5.078,0.86 -6.41,2.5 -0.938,1.02 -1.641,2.539 -2.028,4.532 -0.55,-0.743 -1.171,-1.411 -1.882,-2.032 -3.981,-3.558 -8.829,-5.308 -14.528,-5.308 z m 16.41,19.84 v 5.16 c -1.492,-0.75 -3.132,-1.211 -5,-1.41 l -7.191,-1.09 c -3.871,-0.551 -6.68,-1.41 -8.441,-2.66 -1.68,-1.25 -2.5,-2.969 -2.5,-5.161 0,-2.609 0.671,-4.64 2.031,-6.089 1.449,-1.371 3.519,-2.032 6.25,-2.032 4.14,0 7.66,1.09 10.469,3.282 1.961,1.64 3.281,3.48 3.91,5.468 0.082,0.313 0.191,0.86 0.312,1.719 0.078,0.82 0.16,1.762 0.16,2.813 z" /><path
         id="path164"
         style="fill:#fad15a;fill-opacity:1;fill-rule:nonzero;stroke:none"
         d="m 281.52,598.828 h 7.66 v -6.719 l 0.308,0.621 c 3.442,5 7.891,7.5 13.442,7.5 6.129,0 10.98,-2.14 14.531,-6.402 3.629,-4.18 5.469,-9.918 5.469,-17.187 0,-8.121 -1.84,-14.532 -5.469,-19.219 -3.672,-4.613 -8.672,-6.871 -15,-6.871 -5.313,0 -9.531,2.027 -12.66,6.09 l -0.313,0.308 v -23.75 h -7.968 z m 20.468,-41.406 c 4.141,0 7.274,1.558 9.383,4.687 2.18,3.121 3.277,7.661 3.277,13.59 0,5.942 -1.058,10.321 -3.128,13.129 -1.989,2.813 -5.11,4.223 -9.372,4.223 -4.378,0 -7.617,-1.641 -9.687,-4.852 -1.992,-3.121 -2.973,-8.199 -2.973,-15.148 0,-5 1.102,-8.871 3.282,-11.571 2.191,-2.73 5.242,-4.058 9.218,-4.058 z" /><path
         id="path166"
         style="fill:#fad15a;fill-opacity:1;fill-rule:nonzero;stroke:none"
         d="m 332.539,598.828 h 7.97266 V 551.8007 H 332.539 Z m 0,17.5 h 7.97266 v -8.90625 H 332.539 Z" /><path
         id="path168"
         style="fill:#fad15a;fill-opacity:1;fill-rule:nonzero;stroke:none"
         d="m 352.578,551.801 h 7.8125 v 64.5273 h -7.8125 z" /><path
         id="path170"
         style="fill:#fad15a;fill-opacity:1;fill-rule:nonzero;stroke:none"
         d="m 425.738,569.922 c 3.133,0 6.102,2.066 8.91,6.25 2.891,4.137 4.372,8.598 4.372,13.277 0,6.449 -2.461,11.879 -7.34,16.25 -4.918,4.461 -10.899,6.723 -17.969,6.723 -7.731,0 -14.223,-2.774 -19.531,-8.281 -5.309,-5.43 -7.969,-12.153 -7.969,-20.161 0,-7.929 2.699,-14.64 8.129,-20.152 5.39,-5.43 11.949,-8.129 19.68,-8.129 4.46,0 8.789,0.942 12.968,2.821 4.141,1.871 7.422,4.371 9.852,7.5 h 5.93 c -2.731,-4.809 -6.68,-8.719 -11.872,-11.719 -5.238,-2.891 -10.738,-4.379 -16.558,-4.379 -9.692,0 -17.891,3.277 -24.539,9.848 -6.68,6.64 -10,14.718 -10,24.21 0,9.571 3.211,17.661 9.687,24.219 6.563,6.571 14.571,9.852 24.063,9.852 8.64,0 15.98,-2.781 22.039,-8.281 6.012,-5.551 9.058,-12.309 9.058,-20.321 0,-6.359 -2.269,-12.148 -6.718,-17.34 -4.379,-5.23 -9.301,-7.808 -14.692,-7.808 -2.297,0 -3.898,1.008 -4.84,3.121 -0.308,0.629 -0.589,1.328 -0.777,2.187 l -0.633,-0.781 c -3.359,-3.047 -6.949,-4.527 -10.777,-4.527 -3.871,0 -6.992,1.32 -9.371,4.058 -2.309,2.692 -3.442,6.332 -3.442,10.942 0,6.558 2.071,12.179 6.25,16.871 4.141,4.769 9.102,7.187 14.84,7.187 4.262,0 7.422,-2.269 9.532,-6.718 l 0.32,-0.782 1.871,6.09 h 6.25 l -7.813,-27.027 c -0.429,-1.371 -0.546,-2.582 -0.308,-3.594 0.191,-0.937 0.66,-1.406 1.398,-1.406 z m -11.398,27.027 c -3.68,0 -6.84,-1.828 -9.539,-5.469 -2.731,-3.671 -4.141,-7.929 -4.211,-12.808 0,-2.621 0.621,-4.613 1.871,-5.942 1.328,-1.359 3.199,-2.031 5.629,-2.031 2.57,0 5.031,1.02 7.34,3.129 2.269,2.192 3.91,5 4.84,8.442 1.25,4.25 1.289,7.73 0.16,10.46 -1.051,2.821 -3.09,4.219 -6.09,4.219 z" /><path
         id="path172"
         style="fill:#fad15a;fill-opacity:1;fill-rule:nonzero;stroke:none"
         d="m 481.68,550.551 c -6.25,0 -11.25,2.34 -15,7.027 -3.75,4.692 -5.629,11.012 -5.629,19.063 0,7.07 1.758,12.738 5.32,17.031 3.629,4.379 8.359,6.558 14.219,6.558 5.82,0 10.39,-2.46 13.75,-7.339 l 0.621,-0.942 v 24.379 h 7.809 v -64.527 h -7.34 v 6.398 l -0.942,-1.398 c -3.238,-4.18 -7.5,-6.25 -12.808,-6.25 z m 0.468,42.5 c -4.378,0 -7.617,-1.41 -9.687,-4.223 -2.109,-2.808 -3.121,-7.308 -3.121,-13.437 0,-5.86 1.09,-10.313 3.281,-13.442 2.258,-3.121 5.469,-4.679 9.527,-4.679 3.832,0 6.911,1.441 9.223,4.371 2.379,2.89 3.59,6.718 3.59,11.41 0,6.437 -1.172,11.398 -3.441,14.84 -2.18,3.437 -5.309,5.16 -9.372,5.16 z" /><path
         id="path174"
         style="fill:#fad15a;fill-opacity:1;fill-rule:nonzero;stroke:none"
         d="m 533.051,550.551 c -6.68,0 -11.961,2.07 -15.781,6.25 -3.75,4.25 -5.629,10.078 -5.629,17.5 0,7.89 1.949,14.219 5.937,18.898 4.063,4.692 9.531,7.031 16.402,7.031 6.141,0 11.098,-2.3 14.848,-6.871 3.75,-4.609 5.621,-10.589 5.621,-17.968 v -2.813 h -34.371 c 0.313,-4.687 1.332,-8.277 3.121,-10.777 2.27,-3.051 5.821,-4.531 10.629,-4.531 3.012,0 5.621,0.82 7.813,2.5 2.269,1.75 3.668,3.941 4.218,6.558 h 7.813 c -1.172,-5.117 -3.512,-9.027 -7.031,-11.719 -3.551,-2.73 -8.09,-4.058 -13.59,-4.058 z m 13.121,28.429 c -0.231,4.258 -1.25,7.661 -3.121,10.161 -2.192,2.699 -5.391,4.058 -9.531,4.058 -4.18,0 -7.469,-1.558 -9.848,-4.679 -1.992,-2.43 -3.203,-5.59 -3.594,-9.54 z" /><path
         id="path176"
         style="fill:#fad15a;fill-opacity:1;fill-rule:nonzero;stroke:none"
         d="m 558.91,598.828 h 9.211 l 12.5,-38.437 13.129,38.437 h 8.75 l -17.66,-47.027 h -8.43 z" /><path
         id="path178"
         style="fill:#fad15a;fill-opacity:1;fill-rule:nonzero;stroke:none"
         d="m 618.75,592.27 v -40.469 h -7.809 v 40.469 h -6.562 v 6.558 h 6.562 v 7.973 c 0,3.508 0.969,6.129 2.969,7.808 2.07,1.762 5.192,2.661 9.371,2.661 h 3.438 v -7.192 l -3.129,0.152 c -1.559,0 -2.77,-0.539 -3.59,-1.558 -0.859,-0.942 -1.25,-2.301 -1.25,-4.063 v -5.781 h 7.969 v -6.558 z" /><path
         id="path180"
         style="fill:#fad15a;fill-opacity:1;fill-rule:nonzero;stroke:none"
         d="m 634.18,598.828 h 7.96875 V 551.8007 H 634.18 Z m 0,17.5 h 7.96875 v -8.90625 H 634.18 Z" /><path
         id="path182"
         style="fill:#fad15a;fill-opacity:1;fill-rule:nonzero;stroke:none"
         d="m 653.91,551.801 v 47.027 h 7.649 v -6.879 l 1.722,2.192 c 3.438,4.058 7.699,6.089 12.809,6.089 5.199,0 9.219,-1.402 12.031,-4.21 2.82,-2.821 4.219,-6.84 4.219,-12.04 v -32.179 h -7.961 v 29.527 c 0,4.141 -0.789,7.113 -2.348,8.902 -1.562,1.879 -4.179,2.821 -7.812,2.821 -3.75,0 -6.797,-1.492 -9.059,-4.379 -2.191,-2.934 -3.281,-6.832 -3.281,-11.723 v -25.148 z" /><path
         id="path184"
         style="fill:#fad15a;fill-opacity:1;fill-rule:nonzero;stroke:none"
         d="m 741.211,568.672 c -0.859,-5.942 -2.973,-10.473 -6.41,-13.594 -3.352,-3.047 -7.77,-4.527 -13.281,-4.527 -6.25,0 -11.25,2.219 -15,6.719 -3.75,4.449 -5.622,10.5 -5.622,18.121 0,7.578 1.911,13.629 5.782,18.129 3.832,4.449 9.058,6.71 15.621,6.71 5.629,0 10.078,-1.558 13.437,-4.679 3.442,-3.051 5.242,-7.27 5.473,-12.66 h -7.66 c -0.313,3.32 -1.52,5.859 -3.59,7.66 -1.992,1.871 -4.652,2.808 -7.973,2.808 -3.976,0 -7.109,-1.64 -9.367,-4.839 -2.312,-3.129 -3.441,-7.5 -3.441,-13.129 0,-6.051 1.019,-10.59 3.121,-13.59 2.187,-3.051 5.32,-4.531 9.379,-4.531 3.121,0 5.699,0.968 7.808,2.96 2.071,1.961 3.442,4.77 4.063,8.442 z" /><path
         id="path186"
         style="fill:#fad15a;fill-opacity:1;fill-rule:nonzero;stroke:none"
         d="m 768.238,550.551 c -6.476,0 -11.718,2.258 -15.777,6.871 -4.063,4.566 -6.09,10.547 -6.09,17.969 0,7.379 2.027,13.359 6.09,17.968 4.059,4.571 9.301,6.871 15.777,6.871 6.563,0 11.801,-2.3 15.782,-6.871 4.07,-4.609 6.101,-10.589 6.101,-17.968 0,-7.422 -2.031,-13.403 -6.101,-17.969 -3.981,-4.613 -9.219,-6.871 -15.782,-6.871 z m 0,6.719 c 4.141,0 7.422,1.601 9.852,4.839 2.5,3.321 3.75,7.731 3.75,13.282 0,5.507 -1.25,9.879 -3.75,13.129 -2.43,3.199 -5.711,4.839 -9.852,4.839 -4.179,0 -7.5,-1.64 -10,-4.839 -2.418,-3.25 -3.59,-7.622 -3.59,-13.129 0,-5.551 1.172,-9.961 3.59,-13.282 2.5,-3.238 5.821,-4.839 10,-4.839 z" /><path
         id="path188"
         style="fill:#fad15a;fill-opacity:1;fill-rule:nonzero;stroke:none"
         d="m 800.199,551.801 v 47.027 h 7.653 v -8.129 c 0.628,1.332 1.289,2.5 2.027,3.442 3.012,4.058 6.723,6.089 11.101,6.089 0.7,0 1.442,-0.152 2.18,-0.46 v -7.969 h -1.558 c -4.301,0 -7.622,-1.332 -10,-3.91 -2.301,-2.5 -3.442,-6.172 -3.442,-10.942 v -25.148 z" /><path
         id="path190"
         style="fill:#fad15a;fill-opacity:1;fill-rule:nonzero;stroke:none"
         d="m 828.551,598.828 h 7.66 v -6.719 l 0.309,0.621 c 3.441,5 7.89,7.5 13.441,7.5 6.129,0 10.98,-2.14 14.527,-6.402 3.633,-4.18 5.473,-9.918 5.473,-17.187 0,-8.121 -1.84,-14.532 -5.473,-19.219 -3.668,-4.613 -8.668,-6.871 -15,-6.871 -5.308,0 -9.527,2.027 -12.648,6.09 l -0.32,0.308 v -23.75 h -7.969 z m 20.469,-41.406 c 4.14,0 7.269,1.558 9.378,4.687 2.192,3.121 3.282,7.661 3.282,13.59 0,5.942 -1.059,10.321 -3.129,13.129 -1.992,2.813 -5.11,4.223 -9.371,4.223 -4.379,0 -7.621,-1.641 -9.692,-4.852 -1.988,-3.121 -2.968,-8.199 -2.968,-15.148 0,-5 1.101,-8.871 3.281,-11.571 2.187,-2.73 5.238,-4.058 9.219,-4.058 z" /><path
         id="path192"
         style="fill:#fad15a;fill-opacity:1;fill-rule:nonzero;stroke:none"
         d="m 881.289,551.801 h 9.38281 v 9.52734 H 881.289 Z" /><path
         id="path194"
         style="fill:#fad15a;fill-opacity:1;fill-rule:nonzero;stroke:none"
         d="m 941.41,568.672 c -0.859,-5.942 -2.969,-10.473 -6.41,-13.594 -3.359,-3.047 -7.77,-4.527 -13.281,-4.527 -6.25,0 -11.25,2.219 -15,6.719 -3.75,4.449 -5.629,10.5 -5.629,18.121 0,7.578 1.922,13.629 5.789,18.129 3.82,4.449 9.062,6.71 15.621,6.71 5.621,0 10.078,-1.558 13.441,-4.679 3.438,-3.051 5.231,-7.27 5.469,-12.66 h -7.66 c -0.309,3.32 -1.52,5.859 -3.59,7.66 -2,1.871 -4.648,2.808 -7.969,2.808 -3.992,0 -7.113,-1.64 -9.382,-4.839 -2.297,-3.129 -3.43,-7.5 -3.43,-13.129 0,-6.051 1.012,-10.59 3.121,-13.59 2.191,-3.051 5.309,-4.531 9.379,-4.531 3.121,0 5.699,0.968 7.812,2.96 2.071,1.961 3.43,4.77 4.059,8.442 z" /><path
         id="path196"
         style="fill:#fad15a;fill-opacity:1;fill-rule:nonzero;stroke:none"
         d="m 968.441,550.551 c -6.492,0 -11.722,2.258 -15.781,6.871 -4.07,4.566 -6.101,10.547 -6.101,17.969 0,7.379 2.031,13.359 6.101,17.968 4.059,4.571 9.289,6.871 15.781,6.871 6.559,0 11.789,-2.3 15.778,-6.871 4.062,-4.609 6.09,-10.589 6.09,-17.968 0,-7.422 -2.028,-13.403 -6.09,-17.969 -3.989,-4.613 -9.219,-6.871 -15.778,-6.871 z m 0,6.719 c 4.137,0 7.418,1.601 9.84,4.839 2.5,3.321 3.75,7.731 3.75,13.282 0,5.507 -1.25,9.879 -3.75,13.129 -2.422,3.199 -5.703,4.839 -9.84,4.839 -4.179,0 -7.5,-1.64 -10,-4.839 -2.421,-3.25 -3.601,-7.622 -3.601,-13.129 0,-5.551 1.18,-9.961 3.601,-13.282 2.5,-3.238 5.821,-4.839 10,-4.839 z" /><path
         id="path198"
         style="fill:#fad15a;fill-opacity:1;fill-rule:nonzero;stroke:none"
         d="m 999.34,551.801 v 47.027 h 7.65 v -7.027 l 1.56,2.179 c 3.52,4.141 7.74,6.25 12.66,6.25 4.26,0 7.66,-1.25 10.16,-3.75 1.01,-1.171 1.87,-2.421 2.5,-3.75 l 1.25,1.571 c 3.43,3.937 7.5,5.929 12.18,5.929 5,0 8.79,-1.359 11.41,-4.058 2.7,-2.731 4.06,-6.524 4.06,-11.402 v -32.969 h -7.97 v 30.308 c 0,3.512 -0.74,6.25 -2.18,8.121 -1.49,1.879 -3.6,2.821 -6.41,2.821 -3.44,0 -6.17,-1.371 -8.12,-4.071 -2,-2.609 -2.97,-6.21 -2.97,-10.781 v -26.398 h -7.97 v 32.179 c 0,2.899 -0.7,5.161 -2.03,6.719 -1.37,1.571 -3.28,2.352 -5.78,2.352 -3.56,0 -6.49,-1.531 -8.75,-4.531 -2.19,-3.051 -3.29,-6.879 -3.29,-11.571 v -25.148 z" /><path
         id="path200"
         style="fill:#118770;fill-opacity:1;fill-rule:evenodd;stroke:none"
         d="m 1849.18,919.141 h 324.18 V 1243.32 H 1849.18 V 919.141 m 346.52,-22.34 H 1826.84 V 1265.66 H 2195.7 V 896.801" /><path
         id="path202"
         style="fill:#21b89e;fill-opacity:1;fill-rule:evenodd;stroke:none"
         d="m 1839.1,909.262 h 344.137 V 1253.36 H 1839.1 Z" /><path
         id="path204"
         style="fill:#118770;fill-opacity:1;fill-rule:evenodd;stroke:none"
         d="m 1875.27,945.238 h 271.992 V 1217.23 H 1875.27 Z" /><path
         id="path206"
         style="fill:#facf59;fill-opacity:1;fill-rule:evenodd;stroke:none"
         d="m 2029.14,1112.93 c 0,-6.02 -0.78,-11.8 -2.3,-17.34 -1.57,-5.55 -3.75,-10.75 -6.61,-15.55 -2.85,-4.84 -6.25,-9.22 -10.19,-13.2 -3.95,-3.99 -8.32,-7.39 -13.2,-10.24 -4.85,-2.85 -10.04,-5.04 -15.59,-6.6 -5.55,-1.52 -11.33,-2.3 -17.34,-2.3 h -39.3 v 130.46 h 39.3 c 6.01,0 11.79,-0.78 17.34,-2.34 5.55,-1.52 10.74,-3.75 15.59,-6.6 4.88,-2.85 9.25,-6.25 13.2,-10.24 3.94,-3.94 7.34,-8.36 10.19,-13.16 2.86,-4.84 5.04,-10.04 6.61,-15.59 1.52,-5.54 2.3,-11.32 2.3,-17.3 z m -26.09,0 c 0,5.39 -1.02,10.47 -3.05,15.19 -2.03,4.73 -4.84,8.87 -8.4,12.43 -3.51,3.51 -7.69,6.33 -12.46,8.4 -4.73,2.07 -9.8,3.08 -15.23,3.08 h -13.01 v -78.24 h 13.01 c 5.43,0 10.5,1.01 15.23,3.05 4.77,2.03 8.95,4.84 12.46,8.39 3.56,3.52 6.37,7.7 8.4,12.47 2.03,4.76 3.05,9.84 3.05,15.23 z" /><path
         id="path208"
         style="fill:#facf59;fill-opacity:1;fill-rule:evenodd;stroke:none"
         d="m 2082.97,1107.34 v -23.9 h -46.02 v -32.03 h 42.31 v -23.83 h -42.31 v -50.67 h -29.41 v 130.43 z" /><path
         id="path210"
         style="fill:#138971;fill-opacity:1;fill-rule:nonzero;stroke:none"
         d="M 1537.19,706.762 V 829.41 h 43.43 c 43.52,0 65.32,-19.961 65.32,-59.84 0,-19.058 -5.94,-34.34 -17.82,-45.781 -11.87,-11.367 -27.73,-17.027 -47.5,-17.027 z m 27.65,100.148 v -77.808 h 13.6 c 11.95,0 21.33,3.597 28.12,10.777 6.88,7.191 10.32,16.961 10.32,29.383 0,11.636 -3.4,20.816 -10.16,27.5 -6.8,6.758 -16.25,10.148 -28.44,10.148 z m 177.58,-64.058 h -57.03 c 0.82,-12.731 8.83,-19.063 24.06,-19.063 9.57,0 18.01,2.262 25.32,6.871 v -19.531 c -8.13,-4.367 -18.68,-6.559 -31.57,-6.559 -14.18,0 -25.15,3.91 -32.97,11.719 -7.81,7.891 -11.71,18.832 -11.71,32.813 0,14.57 4.21,26.097 12.65,34.527 8.44,8.519 18.83,12.82 31.25,12.82 12.7,0 22.54,-3.828 29.53,-11.41 6.96,-7.5 10.47,-17.769 10.47,-30.777 z m -25,16.558 c 0,12.578 -5.08,18.91 -15.15,18.91 -4.38,0 -8.21,-1.84 -11.41,-5.468 -3.13,-3.551 -5,-8.051 -5.63,-13.442 z" /><path
         id="path212"
         style="fill:#138971;fill-opacity:1;fill-rule:nonzero;stroke:none"
         d="m 1841.88,794.41 -32.5,-87.648 h -30.79 l -31.09,87.648 h 28.91 l 15.31,-54.058 c 1.64,-6.051 2.66,-11.25 2.97,-15.622 h 0.31 c 0.39,4.059 1.45,9.098 3.12,15.149 l 15.63,54.531 z" /><path
         id="path214"
         style="fill:#138971;fill-opacity:1;fill-rule:nonzero;stroke:none"
         d="m 1975.51,806.91 h -43.28 v -30.148 h 39.68 V 754.41 h -39.68 v -47.648 h -27.66 V 829.41 h 70.94 z" /><path
         id="path216"
         style="fill:#138971;fill-opacity:1;fill-rule:nonzero;stroke:none"
         d="m 2006.48,808.16 c -4.49,0 -8.2,1.328 -11.09,4.07 -2.93,2.692 -4.37,6.008 -4.37,10 0,4.059 1.44,7.34 4.37,9.84 2.89,2.578 6.6,3.91 11.09,3.91 4.69,0 8.44,-1.332 11.25,-3.91 2.89,-2.5 4.38,-5.781 4.38,-9.84 0,-4.07 -1.49,-7.46 -4.38,-10.16 -2.81,-2.621 -6.56,-3.91 -11.25,-3.91 z m 13.44,-101.398 h -27.0313 v 87.6484 h 27.0313 z" /><path
         id="path218"
         style="fill:#138971;fill-opacity:1;fill-rule:nonzero;stroke:none"
         d="m 2127.34,706.762 h -26.87 v 48.59 c 0,13.628 -4.85,20.468 -14.53,20.468 -4.69,0 -8.56,-1.84 -11.56,-5.468 -3.05,-3.551 -4.54,-8.082 -4.54,-13.59 v -50 h -27.03 v 87.648 h 27.03 v -13.898 h 0.32 c 6.44,10.617 15.82,15.937 28.12,15.937 19.38,0 29.06,-12.039 29.06,-36.097 z" /><path
         id="path220"
         style="fill:#138971;fill-opacity:1;fill-rule:nonzero;stroke:none"
         d="m 2215.27,709.879 c -6.17,-3.508 -15,-5.309 -26.56,-5.309 -13.44,0 -24.33,4.059 -32.66,12.192 -8.35,8.199 -12.5,18.789 -12.5,31.718 0,14.758 4.46,26.442 13.44,35 8.95,8.629 20.86,12.969 35.78,12.969 10.32,0 17.82,-1.371 22.5,-4.07 V 769.41 c -5.74,4.262 -12.03,6.41 -18.9,6.41 -7.82,0 -14.03,-2.3 -18.6,-6.871 -4.49,-4.5 -6.72,-10.75 -6.72,-18.75 0,-7.738 2.11,-13.828 6.41,-18.289 4.38,-4.371 10.35,-6.558 17.97,-6.558 6.76,0 13.36,2.07 19.84,6.25 z" /><path
         id="path222"
         style="fill:#138971;fill-opacity:1;fill-rule:nonzero;stroke:none"
         d="m 2274.73,704.57 c -14.61,0 -26.1,4.059 -34.53,12.192 -8.36,8.199 -12.5,19.367 -12.5,33.437 0,14.449 4.29,25.781 12.96,33.903 8.75,8.199 20.51,12.347 35.32,12.347 14.45,0 25.82,-4.148 34.06,-12.347 8.32,-8.122 12.5,-18.903 12.5,-32.34 0,-14.614 -4.3,-26.102 -12.81,-34.532 -8.56,-8.441 -20.24,-12.66 -35,-12.66 z m 0.62,71.25 c -6.37,0 -11.33,-2.269 -14.84,-6.718 -3.56,-4.372 -5.31,-10.582 -5.31,-18.59 0,-16.801 6.75,-25.16 20.31,-25.16 13.01,0 19.53,8.628 19.53,25.937 0,16.332 -6.56,24.531 -19.69,24.531 z" /><path
         id="path224"
         style="fill:#138971;fill-opacity:1;fill-rule:nonzero;stroke:none"
         d="m 2397.11,770.039 c -3.24,1.641 -6.99,2.5 -11.25,2.5 -5.94,0 -10.59,-2.148 -13.91,-6.41 -3.24,-4.289 -4.84,-10.109 -4.84,-17.5 v -41.867 h -27.03 v 87.648 h 27.03 v -16.25 h 0.31 c 4.26,11.762 11.96,17.66 23.13,17.66 2.81,0 5,-0.308 6.56,-0.941 z" /><path
         id="path226"
         style="fill:#138971;fill-opacity:1;fill-rule:nonzero;stroke:none"
         d="m 2437.19,716.91 h -0.31 v -50.461 h -27.04 V 794.41 h 27.04 v -13.281 h 0.31 c 6.64,10.199 16.01,15.32 28.12,15.32 11.33,0 20.08,-3.91 26.25,-11.719 6.25,-7.742 9.38,-18.281 9.38,-31.718 0,-14.614 -3.67,-26.332 -10.94,-35.16 -7.19,-8.872 -16.8,-13.282 -28.75,-13.282 -10.55,0 -18.55,4.102 -24.06,12.34 z m -0.78,35.942 v -7.032 c 0,-6.05 1.56,-11.019 4.68,-14.84 3.21,-3.75 7.43,-5.628 12.66,-5.628 6.13,0 10.86,2.347 14.22,7.027 3.44,4.769 5.15,11.57 5.15,20.32 0,15.391 -6.01,23.121 -17.96,23.121 -5.55,0 -10.08,-2.148 -13.6,-6.41 -3.44,-4.18 -5.15,-9.68 -5.15,-16.558 z" /><path
         id="path228"
         style="fill:#138971;fill-opacity:1;fill-rule:nonzero;stroke:none"
         d="m 1562.85,557.699 v 51.871 h -20 v 7.032 h 47.81 v -7.032 h -19.84 v -51.871 z m 34.34,0 v 58.903 h 7.19 V 594.73 l 1.24,1.559 c 3.13,3.633 7.04,5.473 11.72,5.473 4.77,0 8.44,-1.332 10.94,-3.91 2.58,-2.5 3.91,-6.09 3.91,-10.782 V 557.699 H 1625 v 27.5 c 0,3.512 -0.7,6.09 -2.03,7.653 -1.37,1.558 -3.59,2.347 -6.72,2.347 -3.67,0 -6.56,-1.328 -8.75,-3.91 -2.11,-2.617 -3.12,-6.168 -3.12,-10.629 v -22.961 z" /><path
         id="path230"
         style="fill:#138971;fill-opacity:1;fill-rule:nonzero;stroke:none"
         d="m 1660.31,556.602 c -6.05,0 -10.86,1.878 -14.37,5.628 -3.44,3.821 -5.16,9.219 -5.16,16.09 0,7.192 1.8,12.852 5.47,17.032 3.75,4.257 8.67,6.41 14.84,6.41 5.63,0 10.16,-2.114 13.6,-6.25 3.43,-4.063 5.15,-9.532 5.15,-16.41 l -0.15,-2.5 h -31.25 c 0.31,-4.301 1.29,-7.582 2.97,-9.84 1.95,-2.742 5.15,-4.063 9.53,-4.063 2.81,0 5.19,0.781 7.18,2.34 2.08,1.563 3.33,3.512 3.76,5.941 h 7.18 c -1.05,-4.691 -3.2,-8.281 -6.4,-10.781 -3.25,-2.429 -7.35,-3.597 -12.35,-3.597 z m 12.03,25.777 c -0.23,3.949 -1.21,7.07 -2.96,9.383 -2,2.379 -4.85,3.59 -8.6,3.59 -3.75,0 -6.8,-1.403 -9.06,-4.223 -1.8,-2.18 -2.89,-5.109 -3.28,-8.75 z" /><path
         id="path232"
         style="fill:#138971;fill-opacity:1;fill-rule:nonzero;stroke:none"
         d="m 1737.11,556.129 c -8.13,0 -14.77,2.82 -19.84,8.441 -5,5.7 -7.5,13.2 -7.5,22.5 0,9.258 2.53,16.758 7.65,22.5 5.2,5.7 11.96,8.59 20.31,8.59 6.45,0 11.96,-1.832 16.57,-5.461 4.68,-3.558 7.38,-8.129 8.12,-13.75 h -7.65 c -0.75,3.821 -2.62,6.789 -5.63,8.903 -3.05,2.187 -6.99,3.277 -11.87,3.277 -5.75,0 -10.39,-2.258 -13.91,-6.719 -3.56,-4.371 -5.31,-10.23 -5.31,-17.5 0,-7.609 1.72,-13.551 5.15,-17.808 3.44,-4.18 8.28,-6.25 14.53,-6.25 6.02,0 10.94,2.226 14.69,6.718 0.51,0.7 1.02,1.45 1.56,2.192 0.63,1.008 1.14,2.5 1.57,4.367 0.39,1.883 0.62,3.641 0.62,5.32 v 0.781 h -18.44 v 6.719 h 25.79 v -31.25 h -4.85 l -2.03,7.5 -0.47,-0.629 c -4.8,-5.621 -11.17,-8.441 -19.06,-8.441 z" /><path
         id="path234"
         style="fill:#138971;fill-opacity:1;fill-rule:nonzero;stroke:none"
         d="m 1776.02,557.699 v 42.813 h 6.71 v -7.352 c 0.63,1.141 1.29,2.192 2.04,3.129 2.69,3.633 6.01,5.473 10,5.473 0.7,0 1.4,-0.121 2.03,-0.313 v -7.347 h -1.41 c -3.98,0 -6.99,-1.211 -9.06,-3.59 -2.11,-2.313 -3.13,-5.59 -3.13,-9.852 v -22.961 z" /><path
         id="path236"
         style="fill:#138971;fill-opacity:1;fill-rule:nonzero;stroke:none"
         d="m 1819.8,556.602 c -5.93,0 -10.78,2.07 -14.53,6.25 -3.67,4.136 -5.47,9.57 -5.47,16.25 0,6.878 1.8,12.347 5.47,16.41 3.75,4.136 8.6,6.25 14.53,6.25 5.94,0 10.71,-2.114 14.38,-6.25 3.75,-4.063 5.62,-9.532 5.62,-16.41 0,-6.68 -1.87,-12.114 -5.62,-16.25 -3.67,-4.18 -8.44,-6.25 -14.38,-6.25 z m 0,6.097 c 3.75,0 6.72,1.442 8.91,4.371 2.27,3.008 3.44,7.032 3.44,12.032 0,5.078 -1.17,9.097 -3.44,12.027 -2.19,3.012 -5.16,4.531 -8.91,4.531 -3.86,0 -6.87,-1.519 -9.06,-4.531 -2.19,-2.93 -3.28,-6.949 -3.28,-12.027 0,-5 1.09,-9.024 3.28,-12.032 2.19,-2.929 5.2,-4.371 9.06,-4.371 z" /><path
         id="path238"
         style="fill:#138971;fill-opacity:1;fill-rule:nonzero;stroke:none"
         d="m 1855.9,557.699 -12.19,42.813 h 7.97 l 8.28,-34.063 8.28,34.063 h 8.13 l 8.59,-34.383 8.59,34.383 h 7.19 l -12.03,-42.813 h -7.81 l -8.91,33.43 -8.28,-33.43 z" /><path
         id="path240"
         style="fill:#138971;fill-opacity:1;fill-rule:nonzero;stroke:none"
         d="m 1922.93,557.699 c -2.5,-0.32 -4.34,-0.469 -5.47,-0.469 -3.12,0 -5.39,0.661 -6.72,2.032 -1.25,1.328 -1.87,3.75 -1.87,7.187 v 28.281 h -5.94 v 5.782 h 5.94 v 12.027 h 7.34 v -12.027 h 6.72 v -5.782 h -6.72 v -28.281 c 0,-0.937 0.35,-1.719 1.09,-2.347 0.71,-0.551 1.72,-0.782 2.97,-0.782 h 2.66 z" /><path
         id="path242"
         style="fill:#138971;fill-opacity:1;fill-rule:nonzero;stroke:none"
         d="m 1929.88,557.699 v 58.903 h 7.19 V 594.73 l 1.25,1.559 c 3.13,3.633 7.03,5.473 11.72,5.473 4.76,0 8.44,-1.332 10.94,-3.91 2.57,-2.5 3.9,-6.09 3.9,-10.782 v -29.371 h -7.18 v 27.5 c 0,3.512 -0.71,6.09 -2.04,7.653 -1.36,1.558 -3.59,2.347 -6.71,2.347 -3.68,0 -6.57,-1.328 -8.75,-3.91 -2.11,-2.617 -3.13,-6.168 -3.13,-10.629 v -22.961 z" /><path
         id="path244"
         style="fill:#138971;fill-opacity:1;fill-rule:nonzero;stroke:none"
         d="m 2016.41,581.289 -22.35,35.313 h 9.38 l 16.87,-28.59 17.03,28.59 h 9.22 l -22.18,-35.473 v -23.43 h -7.97 z" /><path
         id="path246"
         style="fill:#138971;fill-opacity:1;fill-rule:nonzero;stroke:none"
         d="m 2070.51,556.602 c -5.94,0 -10.78,2.07 -14.53,6.25 -3.68,4.136 -5.47,9.57 -5.47,16.25 0,6.878 1.79,12.347 5.47,16.41 3.75,4.136 8.59,6.25 14.53,6.25 5.94,0 10.7,-2.114 14.37,-6.25 3.75,-4.063 5.63,-9.532 5.63,-16.41 0,-6.68 -1.88,-12.114 -5.63,-16.25 -3.67,-4.18 -8.43,-6.25 -14.37,-6.25 z m 0,6.097 c 3.75,0 6.72,1.442 8.9,4.371 2.27,3.008 3.44,7.032 3.44,12.032 0,5.078 -1.17,9.097 -3.44,12.027 -2.18,3.012 -5.15,4.531 -8.9,4.531 -3.87,0 -6.88,-1.519 -9.06,-4.531 -2.19,-2.93 -3.29,-6.949 -3.29,-12.027 0,-5 1.1,-9.024 3.29,-12.032 2.18,-2.929 5.19,-4.371 9.06,-4.371 z" /><path
         id="path248"
         style="fill:#138971;fill-opacity:1;fill-rule:nonzero;stroke:none"
         d="m 2106.17,600.512 v -27.66 c 0,-3.551 0.67,-6.172 2.03,-7.813 1.33,-1.559 3.6,-2.34 6.72,-2.34 3.52,0 6.29,1.321 8.28,4.063 2.07,2.687 3.13,6.328 3.13,10.937 v 22.813 h 7.19 v -42.813 h -6.88 v 6.563 c -0.55,-0.864 -1.05,-1.563 -1.56,-2.192 -3.13,-3.672 -6.99,-5.468 -11.56,-5.468 -4.93,0 -8.56,1.168 -10.94,3.597 -2.42,2.379 -3.6,6.012 -3.6,10.93 v 29.383 z" /><path
         id="path250"
         style="fill:#138971;fill-opacity:1;fill-rule:nonzero;stroke:none"
         d="m 2168.44,557.699 v 58.903 h 24.06 c 7.5,0 13.44,-2.653 17.81,-7.973 4.46,-5.309 6.72,-12.5 6.72,-21.559 0,-8.98 -2.3,-16.09 -6.87,-21.41 -4.5,-5.308 -10.59,-7.961 -18.28,-7.961 z m 7.97,6.871 h 14.53 c 5.7,0 10.08,1.91 13.12,5.782 3.13,3.949 4.69,9.527 4.69,16.718 0,7.27 -1.52,12.852 -4.53,16.719 -2.93,3.941 -7.15,5.941 -12.66,5.941 h -15.15 z" /><path
         id="path252"
         style="fill:#138971;fill-opacity:1;fill-rule:nonzero;stroke:none"
         d="m 2243.75,556.602 c -6.05,0 -10.86,1.878 -14.37,5.628 -3.44,3.821 -5.16,9.219 -5.16,16.09 0,7.192 1.8,12.852 5.47,17.032 3.75,4.257 8.67,6.41 14.84,6.41 5.63,0 10.16,-2.114 13.59,-6.25 3.44,-4.063 5.16,-9.532 5.16,-16.41 l -0.16,-2.5 h -31.24 c 0.31,-4.301 1.28,-7.582 2.96,-9.84 1.96,-2.742 5.16,-4.063 9.54,-4.063 2.81,0 5.19,0.781 7.18,2.34 2.07,1.563 3.32,3.512 3.75,5.941 h 7.19 c -1.05,-4.691 -3.2,-8.281 -6.41,-10.781 -3.24,-2.429 -7.34,-3.597 -12.34,-3.597 z m 12.03,25.777 c -0.23,3.949 -1.21,7.07 -2.97,9.383 -1.99,2.379 -4.84,3.59 -8.59,3.59 -3.75,0 -6.8,-1.403 -9.06,-4.223 -1.8,-2.18 -2.89,-5.109 -3.28,-8.75 z" /><path
         id="path254"
         style="fill:#138971;fill-opacity:1;fill-rule:nonzero;stroke:none"
         d="m 2296.45,588.16 c -0.24,2.391 -1.22,4.219 -2.97,5.469 -1.68,1.332 -3.99,2.031 -6.88,2.031 -3.05,0 -5.31,-0.539 -6.87,-1.558 -1.57,-1.051 -2.35,-2.582 -2.35,-4.532 0,-1.558 0.55,-2.769 1.72,-3.59 1.02,-0.75 3.2,-1.492 6.56,-2.191 l 7.35,-1.879 c 4.14,-0.93 7.19,-2.34 9.06,-4.211 1.76,-1.679 2.66,-4.148 2.66,-7.347 0,-4.301 -1.57,-7.653 -4.69,-10.153 -3.05,-2.429 -7.15,-3.597 -12.34,-3.597 -6.06,0 -10.59,1.128 -13.6,3.437 -2.93,2.383 -4.53,6.172 -4.84,11.41 h 6.87 c 0.39,-3.129 1.49,-5.398 3.28,-6.719 1.76,-1.371 4.54,-2.031 8.29,-2.031 3.2,0 5.66,0.621 7.34,1.871 1.64,1.25 2.5,3.008 2.5,5.309 0,1.57 -0.59,2.699 -1.72,3.441 -1.05,0.821 -3.24,1.602 -6.56,2.34 l -7.5,1.719 c -3.99,1.019 -6.84,2.391 -8.6,4.07 -1.68,1.75 -2.5,4.141 -2.5,7.18 0,4.07 1.41,7.23 4.22,9.531 2.89,2.391 6.8,3.602 11.72,3.602 5,0 8.95,-1.211 11.88,-3.602 3,-2.422 4.61,-5.738 4.84,-10 z" /><path
         id="path256"
         style="fill:#138971;fill-opacity:1;fill-rule:nonzero;stroke:none"
         d="m 2330.39,556.602 c -6.05,0 -10.86,1.878 -14.37,5.628 -3.44,3.821 -5.16,9.219 -5.16,16.09 0,7.192 1.8,12.852 5.47,17.032 3.75,4.257 8.67,6.41 14.84,6.41 5.63,0 10.16,-2.114 13.6,-6.25 3.43,-4.063 5.15,-9.532 5.15,-16.41 l -0.15,-2.5 h -31.25 c 0.31,-4.301 1.28,-7.582 2.96,-9.84 1.96,-2.742 5.16,-4.063 9.54,-4.063 2.81,0 5.19,0.781 7.18,2.34 2.07,1.563 3.32,3.512 3.75,5.941 h 7.19 c -1.05,-4.691 -3.2,-8.281 -6.41,-10.781 -3.24,-2.429 -7.34,-3.597 -12.34,-3.597 z m 12.03,25.777 c -0.23,3.949 -1.21,7.07 -2.97,9.383 -1.99,2.379 -4.84,3.59 -8.59,3.59 -3.75,0 -6.8,-1.403 -9.06,-4.223 -1.8,-2.18 -2.89,-5.109 -3.28,-8.75 z" /><path
         id="path258"
         style="fill:#138971;fill-opacity:1;fill-rule:nonzero;stroke:none"
         d="m 2359.61,557.699 v 42.813 h 6.72 v -7.352 c 0.62,1.141 1.29,2.192 2.03,3.129 2.69,3.633 6.02,5.473 10,5.473 0.7,0 1.41,-0.121 2.03,-0.313 v -7.347 h -1.41 c -3.98,0 -6.99,-1.211 -9.06,-3.59 -2.11,-2.313 -3.12,-5.59 -3.12,-9.852 v -22.961 z" /><path
         id="path260"
         style="fill:#138971;fill-opacity:1;fill-rule:nonzero;stroke:none"
         d="m 2381.21,600.512 h 8.44 l 11.56,-35 11.72,35 h 7.97 l -15.94,-42.813 h -7.66 z" /><path
         id="path262"
         style="fill:#138971;fill-opacity:1;fill-rule:nonzero;stroke:none"
         d="m 2444.38,556.602 c -6.06,0 -10.86,1.878 -14.38,5.628 -3.44,3.821 -5.16,9.219 -5.16,16.09 0,7.192 1.8,12.852 5.47,17.032 3.75,4.257 8.67,6.41 14.85,6.41 5.62,0 10.15,-2.114 13.59,-6.25 3.44,-4.063 5.16,-9.532 5.16,-16.41 l -0.16,-2.5 h -31.25 c 0.31,-4.301 1.29,-7.582 2.97,-9.84 1.95,-2.742 5.15,-4.063 9.53,-4.063 2.81,0 5.2,0.781 7.19,2.34 2.07,1.563 3.32,3.512 3.75,5.941 h 7.18 c -1.05,-4.691 -3.2,-8.281 -6.4,-10.781 -3.24,-2.429 -7.34,-3.597 -12.34,-3.597 z m 12.03,25.777 c -0.24,3.949 -1.21,7.07 -2.97,9.383 -1.99,2.379 -4.85,3.59 -8.6,3.59 -3.75,0 -6.79,-1.403 -9.06,-4.223 -1.8,-2.18 -2.89,-5.109 -3.28,-8.75 z" /></g></g></svg>